<?xml version="1.0" encoding="UTF-8"?>
<svg id="Layer_2" data-name="Layer 2" xmlns="http://www.w3.org/2000/svg" viewBox="0 0 272.67 423.76">
  <defs>
    <style>
      .cls-1 {
        fill: #cf4646;
      }

      .cls-2 {
        fill: #4c50a2;
      }

      .cls-3 {
        opacity: .5;
      }

      .cls-3, .cls-4 {
        fill: #fff;
      }

      .cls-5 {
        fill: #46b946;
      }

      .cls-6 {
        stroke-width: .5px;
      }

      .cls-6, .cls-7 {
        stroke: #000;
      }

      .cls-7 {
        fill: none;
        stroke-width: 4px;
      }
    </style>
  </defs>
  <g id="Layer_25" data-name="Layer 25">
    <rect class="cls-4" width="272.67" height="385.9"/>
  </g>
  <g id="behind_left" data-name="behind left">
    <polygon class="cls-5" points="128.67 223.33 128.67 104.33 34.67 39.83 16.87 8 8.67 8 8.67 262.83 97.67 262.83 106.67 236.83 128.67 223.33"/>
  </g>
  <g id="behind_right" data-name="behind right">
    <polygon class="cls-2" points="144.67 223.33 144.67 104.33 238.67 39.83 256.46 8 264.67 8 264.67 262.83 175.67 262.83 166.67 236.83 144.67 223.33"/>
  </g>
  <g id="cup_left" data-name="cup left">
    <path class="cls-3" d="M135.31,172.35c-69.75,0-126.3-56.08-126.3-125.26,0-35.58.2-39.01.2-39.01l126.13-.09-.03,164.35Z"/>
  </g>
  <g id="cup_right" data-name="cup right">
    <path class="cls-3" d="M138.47,172.35c69.79,0,126.37-56.08,126.37-125.26,0-35.58-.2-39.01-.2-39.01l-126.2-.09.03,164.35Z"/>
  </g>
  <g id="spout_left" data-name="spout left">
    <path class="cls-3" d="M137.38,127.83c-20.12,0-36.43-15.98-36.43-35.69,0-10.14.06-11.12.06-11.12l36.38-.02v46.83Z"/>
  </g>
  <g id="spout_right" data-name="spout right">
    <path class="cls-3" d="M135.96,127.83c20.12,0,36.43-15.98,36.43-35.69,0-10.14-.06-11.12-.06-11.12l-36.38-.02v46.83Z"/>
  </g>
  <g id="Layer_19" data-name="Layer 19">
    <path class="cls-6" d="M131.83,218s0-.1.01-.15c-20.46,2.29-36.37,19.63-36.37,40.7,0,1.01.18,1.97.5,2.89.68-.69,1.63-1.13,2.87-1.14.08-2.27,1.48-4.48,4.21-4.77.37-4.67.35-9.42,3.06-13.47,3.01-4.51,6.79-9.62,11.2-12.84,4.32-3.16,9.38-4.41,14.54-5.44-.03-1.92-.04-3.85,0-5.78Z"/>
    <path class="cls-6" d="M141.83,217.96s0,.03,0,.04c-.03,1.66-.03,3.32-.01,4.97,1.78.45,3.34,1.24,4.81,2.19.28.04.57.1.87.19,6.29,1.92,11.74,5.84,15.86,10.88,1.47,1.29,2.75,2.82,3.68,4.77.51,1.07.94,2.15,1.31,3.23,1.91,4.16,3.06,8.66,3.28,13.2.19.79.39,1.63.54,2.49,1.38-.18,2.76-.29,4.17-.25.33,0,.65.06.98.14.06-.41.09-.83.09-1.25,0-20.79-15.5-37.96-35.57-40.6Z"/>
  </g>
  <g id="red_pour_bg" data-name="red pour bg">
    <polygon class="cls-1" points="238.17 42.33 148.17 99.83 139.65 227 133.67 227 125.67 98.83 53.67 59.92 15.87 8 257.17 8 238.17 42.33"/>
  </g>
  <g id="red_pour_fore" data-name="red pour fore">
    <path class="cls-3" d="M136.73,27.33c-36.63,0-68.06,6-93.05,18.86l9.99,13.73,72,38.92,8,128.17h5.98l8.52-127.17,83.78-53.03c-19.28-14.47-57.37-19.47-95.22-19.47Z"/>
  </g>
  <g id="red_pour_fore_2" data-name="red pour fore 2">
    <path class="cls-3" d="M143.17,227h-13.5s-2.46-83.68,0-79.17c2.46,4.52,11.52,4.37,13.5,0,2.03-4.49,0,79.17,0,79.17Z"/>
  </g>
  <g id="red_pour_fore_3" data-name="red pour fore 3">
    <path class="cls-3" d="M143.17,227h-13.5s-2.46-35.68,0-31.17c2.46,4.52,11.52,4.37,13.5,0,2.03-4.49,0,31.17,0,31.17Z"/>
  </g>
  <g id="outline_left" data-name="outline left">
    <path d="M8.67,262.83h95.33c0-19.83,10.83-34.33,29.67-35.83l-2.5-121.33c-.34-11.36-12.17-22.67-22-26.83C71.5,69.33,37.5,41.5,20.33,8.08h-11.68c24.85,52.75,67.59,72.58,92.52,80.42,2.83,9.33,16,15.83,22,17l5.33,113-1.67.83-10-39.33-7.5,2.83,11.83,37.83-3.17,1.83-41-71.33-9.83,6.33,44,69-2.5,2.67-30.83-29.83-5.83,5.83,32.33,28.5-2.17,3-72.17-43-5.5,10.17,73.83,39.67-.67,3.17-42.33-12.17-1.67,8.5,42,9.17v3.33l-87.02-4.67.02,12Z"/>
  </g>
  <g id="outline_right" data-name="outline right">
    <path d="M264.65,262.83h-95.33c0-19.83-10.83-34.33-29.67-35.83l2.5-121.33c.34-11.36,12.17-22.67,22-26.83,37.67-9.5,71.67-37.33,88.83-70.75h11.68c-24.85,52.75-67.59,72.58-92.52,80.42-2.83,9.33-16,15.83-22,17l-5.33,113,1.67.83,10-39.33,7.5,2.83-11.83,37.83,3.17,1.83,41-71.33,9.83,6.33-44,69,2.5,2.67,30.83-29.83,5.83,5.83-32.33,28.5,2.17,3,72.17-43,5.5,10.17-73.83,39.67.67,3.17,42.33-12.17,1.67,8.5-42,9.17v3.33l87.02-4.67-.02,12Z"/>
  </g>
  <g id="Layer_26" data-name="Layer 26">
    <rect class="cls-7" x="10.33" y="10.01" width="252.33" height="251.32"/>
  </g>
  <g id="Layer_20" data-name="Layer 20">
    <path class="cls-4" d="M169.98,259.58c0-18.36-14.89-33.25-33.25-33.25s-33.25,14.89-33.25,33.25,14.89,33.25,33.25,33.25,33.25-14.89,33.25-33.25Z"/>
  </g>
  <g id="Layer_17" data-name="Layer 17">
    <g>
      <path d="M32.06,274.34c1.57,0,3.07.3,4.48.9,1.41.6,2.64,1.42,3.68,2.47,1.04,1.04,1.86,2.27,2.47,3.68.6,1.41.9,2.91.9,4.48v21.96h-24.12v15.15h-11.47v-48.65h24.05ZM19.48,285.87v11.33h12.65v-6.95c-.05-1.39-.42-2.47-1.11-3.23-.7-.76-1.78-1.15-3.27-1.15h-8.27Z"/>
      <path d="M85.86,274.34v48.65h-11.47v-19.88h-13.48v19.88h-11.47v-48.65h11.47v17.38h13.48v-17.38h11.47Z"/>
      <path d="M92.94,285.94c0-1.57.3-3.07.9-4.48.6-1.41,1.42-2.65,2.47-3.72,1.04-1.07,2.26-1.9,3.65-2.5,1.39-.6,2.9-.9,4.52-.9h26.83v37.11c0,1.58-.3,3.07-.9,4.48-.6,1.41-1.42,2.64-2.47,3.68-1.04,1.04-2.27,1.87-3.68,2.47-1.41.6-2.91.9-4.48.9h-26.83v-37.04ZM104.41,311.45h11.05c1.81,0,2.98-.38,3.51-1.15.53-.77.82-1.85.87-3.24v-21.19h-11.05c-1.11.05-1.96.29-2.54.73-.58.44-1.01.94-1.29,1.5-.32.65-.51,1.37-.56,2.16v21.19Z"/>
      <path d="M161.82,285.8v37.18h-11.47v-37.18h-12.44v-11.54h36.35v11.54h-12.44Z"/>
      <path d="M180.79,285.94c0-1.57.3-3.07.9-4.48.6-1.41,1.43-2.65,2.47-3.72,1.04-1.07,2.26-1.9,3.65-2.5,1.39-.6,2.89-.9,4.52-.9h26.83v37.11c0,1.58-.3,3.07-.9,4.48-.6,1.41-1.42,2.64-2.47,3.68-1.04,1.04-2.27,1.87-3.68,2.47-1.41.6-2.91.9-4.48.9h-26.83v-37.04ZM192.26,311.45h11.05c1.81,0,2.98-.38,3.51-1.15.53-.77.82-1.85.87-3.24v-21.19h-11.05c-1.11.05-1.96.29-2.54.73-.58.44-1.01.94-1.29,1.5-.33.65-.51,1.37-.56,2.16v21.19Z"/>
      <path d="M253.07,274.34c1.57,0,3.07.3,4.48.9,1.41.6,2.64,1.42,3.68,2.47,1.04,1.04,1.86,2.27,2.47,3.68.6,1.41.9,2.91.9,4.48v37.11h-11.47v-32.73c-.05-1.39-.42-2.47-1.11-3.23-.7-.76-1.78-1.15-3.27-1.15h-11.05v37.11h-11.47v-48.65h26.83Z"/>
    </g>
  </g>
  <g id="Layer_16" data-name="Layer 16">
    <g>
      <path d="M36.53,334.59v9.88h-18.61v4.94h14.65v8.75h-14.65v18.09H7.9v-41.65h28.64Z"/>
      <path d="M41.15,344.53c0-1.35.26-2.63.79-3.84.53-1.21,1.25-2.27,2.16-3.18.91-.91,1.98-1.63,3.19-2.14,1.22-.51,2.53-.77,3.95-.77h23.47v31.77c0,1.35-.26,2.63-.79,3.84-.53,1.21-1.25,2.26-2.16,3.15s-1.99,1.6-3.22,2.11c-1.24.52-2.54.77-3.92.77h-23.47v-31.71ZM51.19,366.37h9.67c1.58,0,2.6-.33,3.07-.98.47-.66.72-1.58.76-2.77v-18.14h-9.67c-.97.04-1.71.25-2.22.63-.51.38-.88.81-1.12,1.28-.28.56-.45,1.17-.49,1.85v18.14Z"/>
      <path d="M79.82,376.24v-41.65h10.03v31.77h9.67c1.3,0,2.25-.33,2.86-.98.61-.66.93-1.58.97-2.77v-28.02h10.03v31.77c0,1.35-.26,2.63-.79,3.84-.53,1.21-1.25,2.26-2.16,3.15-.91.89-1.99,1.6-3.22,2.11-1.24.52-2.54.77-3.92.77h-23.47Z"/>
      <path d="M142.02,334.59c1.38,0,2.69.26,3.92.77,1.24.52,2.31,1.22,3.22,2.11s1.63,1.94,2.16,3.15c.53,1.21.79,2.49.79,3.84v31.77h-10.03v-28.02c-.04-1.19-.37-2.11-.97-2.77-.61-.65-1.56-.98-2.86-.98h-9.67v31.77h-10.03v-41.65h23.47Z"/>
      <path d="M171.09,334.59c2.71,0,5.17.25,7.36.74,2.19.5,4.05,1.35,5.59,2.56s2.71,2.84,3.53,4.88c.81,2.04,1.21,4.59,1.21,7.65v10c0,3.01-.38,5.53-1.12,7.56s-1.86,3.65-3.34,4.88c-1.48,1.23-3.32,2.1-5.53,2.62-2.21.52-4.77.77-7.69.77h-14.11v-41.65h14.11ZM169.14,366.37c1.74,0,3.17-.04,4.29-.12,1.11-.08,2.02-.32,2.71-.71s1.19-.97,1.49-1.73c.3-.75.5-1.82.58-3.21,0-.24,0-.84.03-1.81.02-.97.03-2.02.03-3.15v-5.09c0-1.51-.17-2.68-.52-3.51-.35-.83-.88-1.44-1.61-1.81-.73-.38-1.67-.59-2.83-.65-1.15-.06-2.54-.09-4.16-.09h-2.13v21.9h2.13Z"/>
      <path d="M193.65,334.59h32.83v19.64c0,1.78-.46,3.43-1.37,4.94s-2.1,2.7-3.56,3.57l4.92,13.51h-10.67l-4.51-12.14h-7.62v12.14h-10.03v-41.65ZM212.6,354.23c1.3,0,2.26-.33,2.87-.99s.94-1.59.98-2.79v-5.99h-12.77v9.76h8.92Z"/>
      <path d="M243.02,365.83h-11.92v-31.3h10.03v21.42h9.67c1.3,0,2.25-.33,2.86-.98.61-.65.93-1.58.97-2.77v-17.67h10.03v21.42c0,1.35-.26,2.63-.79,3.84-.53,1.21-1.25,2.26-2.17,3.15-.92.89-2,1.6-3.24,2.11s-2.56.77-3.94.77h-1.47v10.41h-10.03v-10.41Z"/>
    </g>
  </g>
</svg>