<?xml version="1.0" encoding="UTF-8"?>
<svg id="Layer_2" data-name="Layer 2" xmlns="http://www.w3.org/2000/svg" viewBox="0 0 272.67 415.84">
  <defs>
    <style>
      .cls-1 {
        fill: #cf4646;
      }

      .cls-2 {
        fill: #4c50a2;
      }

      .cls-3 {
        opacity: .5;
      }

      .cls-3, .cls-4 {
        fill: #fff;
      }

      .cls-5 {
        fill: #46b946;
      }

      .cls-6 {
        stroke-width: .5px;
      }

      .cls-6, .cls-7 {
        stroke: #000;
      }

      .cls-7 {
        fill: none;
        stroke-width: 4px;
      }
    </style>
  </defs>
  <g id="Layer_25" data-name="Layer 25">
    <rect class="cls-4" width="272.67" height="368.33"/>
  </g>
  <g id="behind_left" data-name="behind left">
    <polygon class="cls-5" points="128.67 223.33 128.67 104.33 34.67 39.83 16.87 8 8.67 8 8.67 262.83 97.67 262.83 106.67 236.83 128.67 223.33"/>
  </g>
  <g id="behind_right" data-name="behind right">
    <polygon class="cls-2" points="144.67 223.33 144.67 104.33 238.67 39.83 256.46 8 264.67 8 264.67 262.83 175.67 262.83 166.67 236.83 144.67 223.33"/>
  </g>
  <g id="cup_left" data-name="cup left">
    <path class="cls-3" d="M135.31,172.35c-70.62,0-127.86-56.08-127.86-125.26,0-35.58.2-39.01.2-39.01l127.68-.09-.03,164.35Z"/>
  </g>
  <g id="cup_right" data-name="cup right">
    <path class="cls-3" d="M138.47,172.35c70.62,0,127.86-56.08,127.86-125.26,0-35.58-.2-39.01-.2-39.01l-127.68-.09.03,164.35Z"/>
  </g>
  <g id="spout_left" data-name="spout left">
    <path class="cls-3" d="M137.38,127.83c-20.12,0-36.43-15.98-36.43-35.69,0-10.14.06-11.12.06-11.12l36.38-.02v46.83Z"/>
  </g>
  <g id="spout_right" data-name="spout right">
    <path class="cls-3" d="M135.96,127.83c20.12,0,36.43-15.98,36.43-35.69,0-10.14-.06-11.12-.06-11.12l-36.38-.02v46.83Z"/>
  </g>
  <g id="Layer_19" data-name="Layer 19">
    <path class="cls-6" d="M131.83,218s0-.1.01-.15c-20.46,2.29-36.37,19.63-36.37,40.7,0,1.01.18,1.97.5,2.89.68-.69,1.63-1.13,2.87-1.14.08-2.27,1.48-4.48,4.21-4.77.37-4.67.35-9.42,3.06-13.47,3.01-4.51,6.79-9.62,11.2-12.84,4.32-3.16,9.38-4.41,14.54-5.44-.03-1.92-.04-3.85,0-5.78Z"/>
    <path class="cls-6" d="M141.83,217.96s0,.03,0,.04c-.03,1.66-.03,3.32-.01,4.97,1.78.45,3.34,1.24,4.81,2.19.28.04.57.1.87.19,6.29,1.92,11.74,5.84,15.86,10.88,1.47,1.29,2.75,2.82,3.68,4.77.51,1.07.94,2.15,1.31,3.23,1.91,4.16,3.06,8.66,3.28,13.2.19.79.39,1.63.54,2.49,1.38-.18,2.76-.29,4.17-.25.33,0,.65.06.98.14.06-.41.09-.83.09-1.25,0-20.79-15.5-37.96-35.57-40.6Z"/>
  </g>
  <g id="red_pour_bg" data-name="red pour bg">
    <polygon class="cls-1" points="238.17 42.33 148.17 99.83 139.65 227 133.67 227 125.67 98.83 53.67 59.92 15.87 8 257.17 8 238.17 42.33"/>
  </g>
  <g id="red_pour_fore" data-name="red pour fore">
    <path class="cls-3" d="M136.73,27.33c-36.63,0-68.06,6-93.05,18.86l9.99,13.73,72,38.92,8,128.17h5.98l8.52-127.17,83.78-53.03c-19.28-14.47-57.37-19.47-95.22-19.47Z"/>
  </g>
  <g id="red_pour_fore_2" data-name="red pour fore 2">
    <path class="cls-3" d="M143.17,227h-13.5s-2.46-83.68,0-79.17c2.46,4.52,11.52,4.37,13.5,0,2.03-4.49,0,79.17,0,79.17Z"/>
  </g>
  <g id="red_pour_fore_3" data-name="red pour fore 3">
    <path class="cls-3" d="M143.17,227h-13.5s-2.46-35.68,0-31.17c2.46,4.52,11.52,4.37,13.5,0,2.03-4.49,0,31.17,0,31.17Z"/>
  </g>
  <g id="outline_left" data-name="outline left">
    <path d="M8.67,262.83h95.33c0-19.83,10.83-34.33,29.67-35.83l-2.5-121.33c-.34-11.36-12.17-22.67-22-26.83C71.5,69.33,37.5,41.5,20.33,8.08h-11.68c24.85,52.75,67.59,72.58,92.52,80.42,2.83,9.33,16,15.83,22,17l5.33,113-1.67.83-10-39.33-7.5,2.83,11.83,37.83-3.17,1.83-41-71.33-9.83,6.33,44,69-2.5,2.67-30.83-29.83-5.83,5.83,32.33,28.5-2.17,3-72.17-43-5.5,10.17,73.83,39.67-.67,3.17-42.33-12.17-1.67,8.5,42,9.17v3.33l-87.02-4.67.02,12Z"/>
  </g>
  <g id="outline_right" data-name="outline right">
    <path d="M264.65,262.83h-95.33c0-19.83-10.83-34.33-29.67-35.83l2.5-121.33c.34-11.36,12.17-22.67,22-26.83,37.67-9.5,71.67-37.33,88.83-70.75h11.68c-24.85,52.75-67.59,72.58-92.52,80.42-2.83,9.33-16,15.83-22,17l-5.33,113,1.67.83,10-39.33,7.5,2.83-11.83,37.83,3.17,1.83,41-71.33,9.83,6.33-44,69,2.5,2.67,30.83-29.83,5.83,5.83-32.33,28.5,2.17,3,72.17-43,5.5,10.17-73.83,39.67.67,3.17,42.33-12.17,1.67,8.5-42,9.17v3.33l87.02-4.67-.02,12Z"/>
  </g>
  <g id="Layer_26" data-name="Layer 26">
    <rect class="cls-7" x="10.33" y="10.01" width="252.33" height="251.32"/>
  </g>
  <g id="Layer_20" data-name="Layer 20">
    <path class="cls-4" d="M169.98,259.58c0-18.36-14.89-33.25-33.25-33.25s-33.25,14.89-33.25,33.25,14.89,33.25,33.25,33.25,33.25-14.89,33.25-33.25Z"/>
  </g>
  <g id="Layer_17" data-name="Layer 17">
    <g>
      <path d="M27.16,299.46h-9.17v15.53h-8.96v-43.18h18.81c4.34,0,7.79,1.11,10.37,3.34s3.87,5.67,3.87,10.34c0,5.1-1.29,8.7-3.87,10.81s-6.26,3.16-11.04,3.16ZM31.38,290.46c1.17-1.04,1.76-2.68,1.76-4.92s-.59-3.85-1.77-4.8c-1.18-.96-2.84-1.44-4.97-1.44h-8.41v12.71h8.41c2.13,0,3.79-.52,4.98-1.55Z"/>
      <path d="M76.09,314.99v-19.28h-16.88v19.28h-8.94v-43.18h8.94v16.46h16.88v-16.46h8.96v43.18h-8.96Z"/>
      <path d="M114.27,316.19c-6.17,0-10.89-1.68-14.15-5.04-4.38-4.12-6.56-10.06-6.56-17.81s2.19-13.85,6.56-17.81c3.26-3.36,7.98-5.04,14.15-5.04s10.89,1.68,14.15,5.04c4.35,3.96,6.53,9.9,6.53,17.81s-2.18,13.69-6.53,17.81c-3.26,3.36-7.98,5.04-14.15,5.04ZM122.8,304.59c2.09-2.64,3.13-6.39,3.13-11.25s-1.05-8.59-3.15-11.24c-2.1-2.65-4.94-3.97-8.51-3.97s-6.43,1.32-8.55,3.96c-2.13,2.64-3.19,6.39-3.19,11.25s1.06,8.61,3.19,11.25c2.13,2.64,4.98,3.96,8.55,3.96s6.42-1.32,8.53-3.96Z"/>
      <path d="M174.72,271.8v7.65h-12.92v35.54h-9.08v-35.54h-12.98v-7.65h34.98Z"/>
      <path d="M199.54,316.19c-6.17,0-10.89-1.68-14.15-5.04-4.38-4.12-6.56-10.06-6.56-17.81s2.19-13.85,6.56-17.81c3.26-3.36,7.98-5.04,14.15-5.04s10.89,1.68,14.15,5.04c4.36,3.96,6.53,9.9,6.53,17.81s-2.18,13.69-6.53,17.81c-3.26,3.36-7.98,5.04-14.15,5.04ZM208.06,304.59c2.09-2.64,3.13-6.39,3.13-11.25s-1.05-8.59-3.15-11.24c-2.1-2.65-4.94-3.97-8.51-3.97s-6.43,1.32-8.55,3.96-3.19,6.39-3.19,11.25,1.06,8.61,3.19,11.25,4.98,3.96,8.55,3.96,6.42-1.32,8.53-3.96Z"/>
      <path d="M263.53,314.99h-9.02l-17.64-30.67v30.67h-8.41v-43.18h9.46l17.2,30.15v-30.15h8.41v43.18Z"/>
    </g>
  </g>
  <g id="Layer_16" data-name="Layer 16">
    <g>
      <path d="M36.16,330.04h-18.81v8.44h16.46v6.38h-16.46v15.39h-7.79v-36.66h26.59v6.45Z"/>
      <path d="M58.36,361.27c-5.36,0-9.46-1.43-12.29-4.28-3.8-3.5-5.7-8.55-5.7-15.14s1.9-11.77,5.7-15.14c2.83-2.86,6.93-4.28,12.29-4.28s9.46,1.43,12.29,4.28c3.78,3.37,5.67,8.42,5.67,15.14s-1.89,11.64-5.67,15.14c-2.83,2.86-6.93,4.28-12.29,4.28ZM65.76,351.4c1.82-2.24,2.72-5.43,2.72-9.56s-.91-7.3-2.74-9.55c-1.82-2.25-4.29-3.37-7.39-3.37s-5.58,1.12-7.43,3.36c-1.85,2.24-2.77,5.43-2.77,9.56s.92,7.32,2.77,9.56c1.85,2.24,4.33,3.36,7.43,3.36s5.57-1.12,7.41-3.36Z"/>
      <path d="M104.86,346.1v-22.56h7.97v22.56c0,3.9-.62,6.94-1.86,9.11-2.31,3.98-6.71,5.98-13.21,5.98s-10.91-1.99-13.23-5.98c-1.24-2.17-1.86-5.21-1.86-9.11v-22.56h7.97v22.56c0,2.52.31,4.37.92,5.53.95,2.06,3.02,3.09,6.21,3.09s5.23-1.03,6.18-3.09c.61-1.16.92-3,.92-5.53Z"/>
      <path d="M151.01,360.24h-7.84l-15.32-26.07v26.07h-7.3v-36.71h8.22l14.94,25.62v-25.62h7.3v36.71Z"/>
      <path d="M174.83,360.24h-16.16v-36.71h16.16c2.32.03,4.26.3,5.8.8,2.63.85,4.76,2.4,6.39,4.66,1.31,1.83,2.2,3.8,2.67,5.93.48,2.13.71,4.15.71,6.08,0,4.88-1,9.02-3,12.4-2.71,4.57-6.91,6.85-12.57,6.85ZM180.66,332.9c-1.21-1.99-3.59-2.99-7.15-2.99h-7.23v23.96h7.23c3.7,0,6.28-1.78,7.74-5.35.8-1.96,1.2-4.29,1.2-7,0-3.74-.59-6.61-1.78-8.62Z"/>
      <path d="M212.61,345.85h-8.09v14.39h-7.66v-36.71h18.4c2.63.05,4.65.37,6.07.95,1.42.58,2.62,1.44,3.6,2.56.81.93,1.46,1.96,1.93,3.09.48,1.13.71,2.42.71,3.86,0,1.74-.45,3.46-1.35,5.14s-2.38,2.88-4.45,3.57c1.73.68,2.96,1.65,3.68,2.9s1.08,3.17,1.08,5.74v2.47c0,1.68.07,2.81.2,3.41.2.95.68,1.64,1.42,2.09v.92h-8.63c-.24-.81-.41-1.47-.51-1.97-.2-1.03-.31-2.08-.33-3.16l-.05-3.41c-.03-2.34-.47-3.9-1.31-4.68-.84-.78-2.41-1.17-4.72-1.17ZM217.36,339.18c1.56-.7,2.34-2.08,2.34-4.13,0-2.22-.75-3.72-2.26-4.48-.85-.43-2.12-.65-3.82-.65h-9.11v9.86h8.88c1.76,0,3.09-.2,3.97-.6Z"/>
      <path d="M263.05,323.54l-12.55,22.91v13.8h-7.84v-13.8l-12.98-22.91h9.24l7.79,15.99,7.46-15.99h8.88Z"/>
    </g>
  </g>
</svg>