<?xml version="1.0" encoding="UTF-8"?>
<svg id="Layer_2" data-name="Layer 2" xmlns="http://www.w3.org/2000/svg" xmlns:xlink="http://www.w3.org/1999/xlink" viewBox="0 0 333.73 154.22">
  <defs>
    <style>
      .cls-1 {
        fill: #150d3b;
      }

      .cls-2 {
        fill: url(#linear-gradient-7);
      }

      .cls-3 {
        fill: url(#linear-gradient-5);
      }

      .cls-4 {
        fill: url(#linear-gradient-6);
      }

      .cls-5 {
        fill: url(#linear-gradient-4);
      }

      .cls-6 {
        fill: url(#linear-gradient-3);
      }

      .cls-7 {
        fill: url(#linear-gradient-2);
      }

      .cls-8 {
        fill: url(#linear-gradient);
      }

      .cls-9 {
        opacity: .69;
      }
    </style>
    <linearGradient id="linear-gradient" x1="116.85" y1="-29.63" x2="169.5" y2="115.04" gradientUnits="userSpaceOnUse">
      <stop offset=".17" stop-color="#fd3df0"/>
      <stop offset=".4" stop-color="#c173fe"/>
      <stop offset=".47" stop-color="#5b9dfe"/>
      <stop offset=".52" stop-color="#25b4fe"/>
      <stop offset=".53" stop-color="#26bafd"/>
      <stop offset=".62" stop-color="#30e7fd"/>
      <stop offset=".66" stop-color="#34f9fd"/>
      <stop offset=".82" stop-color="#24b3fe"/>
      <stop offset=".97" stop-color="#9f51fe"/>
    </linearGradient>
    <linearGradient id="linear-gradient-2" x1="83.78" y1="-33.43" x2="233.92" y2="115.92" gradientUnits="userSpaceOnUse">
      <stop offset=".18" stop-color="#fd3df0"/>
      <stop offset=".4" stop-color="#c173fe"/>
      <stop offset=".47" stop-color="#5b9dfe"/>
      <stop offset=".52" stop-color="#25b4fe"/>
      <stop offset=".53" stop-color="#26bafd"/>
      <stop offset=".62" stop-color="#30e7fd"/>
      <stop offset=".66" stop-color="#34f9fd"/>
      <stop offset=".82" stop-color="#24b3fe"/>
      <stop offset=".97" stop-color="#9f51fe"/>
    </linearGradient>
    <linearGradient id="linear-gradient-3" x1="13.61" y1="45.41" x2="303.47" y2="45.41" gradientUnits="userSpaceOnUse">
      <stop offset=".05" stop-color="#fd3df0" stop-opacity=".6"/>
      <stop offset=".29" stop-color="#c173fe" stop-opacity=".6"/>
      <stop offset=".37" stop-color="#7f8efe" stop-opacity=".6"/>
      <stop offset=".5" stop-color="#25b4fe" stop-opacity=".6"/>
      <stop offset=".58" stop-color="#2ddcfd" stop-opacity=".6"/>
      <stop offset=".66" stop-color="#34f9fd" stop-opacity=".6"/>
      <stop offset=".82" stop-color="#24b3fe" stop-opacity=".6"/>
      <stop offset=".97" stop-color="#9f51fe" stop-opacity=".6"/>
    </linearGradient>
    <linearGradient id="linear-gradient-4" x1="113.86" y1="-8.01" x2="145.78" y2="126.17" gradientUnits="userSpaceOnUse">
      <stop offset=".18" stop-color="#fd3df0"/>
      <stop offset=".35" stop-color="#c173fe"/>
      <stop offset=".56" stop-color="#6139cf"/>
      <stop offset=".69" stop-color="#2b19b5"/>
      <stop offset=".8" stop-color="#2225b7"/>
      <stop offset=".91" stop-color="#24b3fe"/>
      <stop offset=".97" stop-color="#9f51fe"/>
    </linearGradient>
    <linearGradient id="linear-gradient-5" x1="73.06" y1="5.43" x2="170.35" y2="106.18" gradientUnits="userSpaceOnUse">
      <stop offset=".03" stop-color="#fd3df0" stop-opacity=".6"/>
      <stop offset=".29" stop-color="#c173fe" stop-opacity=".6"/>
      <stop offset=".33" stop-color="#7f8efe" stop-opacity=".6"/>
      <stop offset=".4" stop-color="#25b4fe" stop-opacity=".6"/>
      <stop offset=".45" stop-color="#28c2fe" stop-opacity=".6"/>
      <stop offset=".48" stop-color="#2ddcfd" stop-opacity=".6"/>
      <stop offset=".52" stop-color="#34f9fd" stop-opacity=".6"/>
      <stop offset=".71" stop-color="#24b3fe" stop-opacity=".6"/>
      <stop offset=".84" stop-color="#9f51fe" stop-opacity=".6"/>
    </linearGradient>
    <linearGradient id="linear-gradient-6" x1="198.72" y1="52.81" x2="198.72" y2="153.22" gradientUnits="userSpaceOnUse">
      <stop offset="0" stop-color="#f7e529"/>
      <stop offset="1" stop-color="#f1196e"/>
    </linearGradient>
    <linearGradient id="linear-gradient-7" x1="198.72" y1="53.81" x2="198.72" y2="152.22" gradientUnits="userSpaceOnUse">
      <stop offset="0" stop-color="#f7e529"/>
      <stop offset="1" stop-color="#f7e529" stop-opacity="0"/>
    </linearGradient>
  </defs>
  <g id="Layer_11" data-name="Layer 11">
    <g>
      <path class="cls-1" d="M295.47,30.47c-2.18,0-3.96.49-4.28.59-1.94.57-3.4,1.45-4.49,2.29-.25-.41-5.5-2.55-5.79-2.51-.47-.89-.99-1.64-1.51-2.26-2.03-2.47-7.75-5.85-14.8-5.85-1.08,0-2.1.06-3.09.16.83-5.24-2.18-11.53-9.61-13.24-1.19-.27-2.36-.41-3.49-.41-3.2,0-5.83,1.11-7.81,2.73-1.66-3.21-4.79-5.95-9.5-6.66-.86-.13-1.71-.2-2.53-.2-3.66,0-6.62,1.31-8.77,3.18-1.54-3.16-4.45-5.94-8.89-6.88-1-.21-2-.32-2.99-.32-5.97,0-10.17,3.79-11.97,7.04-.35.64-.6,1.33-.74,2.04l-1.96,10.06c-.41-.51-.84-1-1.3-1.47-4.43-4.49-11.01-6.86-19.03-6.86-6.49,0-12.47,1.57-17.56,4.41-.02-.03-.03-.07-.05-.1-1.25-2.16-3.56-3.49-6.06-3.49h-12c-2.16,0-4.18,1-5.49,2.66-1.29-1.63-3.28-2.66-5.49-2.66h-12.54c-1.94,0-3.78.81-5.1,2.22-4.31-2.62-10.04-3.03-14.89-3.03-7.18,0-12.92,1.14-17.18,3.41-.35-2.55-1.31-4.8-2.89-6.72-3.76-4.57-10.11-6.52-21.22-6.52h-20.4c-3.35,0-6.23,2.37-6.87,5.66l-1.39,7.12h-6.18c-3.28,0-6.12,2.28-6.83,5.48l-4.01,18.1c-.46,2.07.05,4.24,1.37,5.9,1.33,1.66,3.34,2.62,5.46,2.62h4.32c-.15.89-.97,4.07-1.12,4.87l-1.01,5.47c-.38,2.04.17,4.15,1.5,5.75.98,1.18,2.32,2,3.79,2.34-1.33,4.22-5.76,11.98-8.6,16.96-7.84,13.75-14.61,25.62-9.69,34.03,4.25,7.27,16.45,10.59,37.48,14.18,2.15.37,4,.68,5.29.94,2.16.44,4.09.65,5.89.65,6.02,0,9.49-2.52,11.34-4.64,5.16-5.9,3.98-14.61,2.62-24.69-1.08-7.97-2.07-15.97.26-22.61,1.34,7.35,8.68,13.51,20.12,13.51h0c1.19,0,2.43-.08,3.66-.23,2.41-.3,4.5-1.83,5.5-4.05,1.01-2.21.79-4.79-.56-6.81-.68-1-2.44-5.42-1.84-8.63.31-1.65,1-3.34,1.63-4.85,4.35-.49,9.14-.8,14.36-.84.55,0,1.24-.04,2.41-.1,1.31-.07,2.94-.17,4.12-.17,14.62,0,19.53-8.66,24.27-17.04l.11-.2c.9,3.49,2.48,6.11,4.02,7.98,4.39,5.32,11.4,8.26,19.75,8.26,3.81,0,7.31-.58,10.48-1.73,1,.52,2.11.8,3.26.8h9.12c2.58,0,4.89-1.41,6.1-3.57,2.23,2.15,5.95,4.27,11.94,4.27,1.07,0,2.08-.04,3.06-.13l-1.55,7.94c-1.08,5.32,1.91,11.93,9.55,13.68,1.19.27,2.36.41,3.49.41h0c6.22,0,10.32-4.19,11.59-8.22,1.77,1.8,4.19,3.17,7.32,3.64.86.13,1.71.2,2.53.2h0c6.72,0,11.08-4.4,12.41-8.63,1.65,1.84,3.94,3.29,6.91,3.92,1,.21,2,.32,2.99.32h0c5.97,0,10.17-3.79,11.97-7.04.35-.63.6-1.32.74-2.03l1.02-5.15c.19-.98.66-4.37.82-5.18,0,0,8.19-4.18,9.3-4.76,1.17.95,2.77,1.95,4.94,2.58.34.1,2.12.58,4.25.58,8.27,0,15-6.39,15-14.24s-6.73-14.24-15-14.24Z"/>
      <path class="cls-8" d="M295.47,29.34c-3.38.05-6.62.97-9.34,3.04.45.06.91.12,1.36.18-.34-.38-.94-.58-1.39-.78-.91-.4-1.84-.76-2.77-1.11-1.28-.49-1.02-.89-2.42-.95.32.19.65.37.97.56-3.74-6.78-13.09-9.16-20.37-8.51.36.47.72.95,1.08,1.42.71-4.89-1.35-9.7-5.45-12.5-5.19-3.55-12.44-3.42-17.35.49.59.08,1.18.15,1.77.23-4.32-8.12-15.69-9.73-22.57-3.9.59.08,1.18.15,1.77.23-3.52-7.01-12.33-9.64-19.31-6.24-2.88,1.4-5.58,3.91-6.85,6.88-.73,1.72-.92,3.76-1.27,5.58-.39,2-.78,4-1.17,6,.63-.17,1.25-.33,1.88-.5-9.19-11.27-27.52-10.54-39.25-4.1.51.13,1.03.27,1.54.4-2.37-4.81-8.03-4.15-12.46-4.15s-9.7-.85-12.91,2.99h1.59c-3.11-3.72-7.99-2.99-12.31-2.99s-9.12-.77-12.41,2.55c.45-.06.91-.12,1.36-.18-5.14-3.03-11.47-3.32-17.29-3.16-5.45.15-11.03.99-15.9,3.54.55.22,1.1.45,1.65.67-.92-6.14-5.38-10.46-11.11-12.34-4.94-1.62-10.25-1.72-15.39-1.72h-12.78c-3.23,0-7.31-.59-10.25,1.02-4.43,2.43-4.55,8.19-5.4,12.59.36-.28.72-.55,1.08-.83-3.08,0-6.86-.55-9.72.82-2.23,1.07-3.8,3.13-4.38,5.51-.2.81-.36,1.64-.54,2.46-.81,3.67-1.63,7.34-2.44,11-.61,2.76-1.73,5.88-.91,8.7.93,3.18,3.77,5.51,7.06,5.82,1.67.16,3.39.04,5.06.04-.36-.47-.72-.95-1.08-1.42-.57,3.04-1.34,6.05-1.9,9.1-.34,1.85-.58,3.63.06,5.47.92,2.64,3.11,4.55,5.79,5.25-.26-.46-.52-.92-.79-1.38-1.7,5.25-4.77,10.16-7.48,14.93-3.4,5.98-6.97,11.92-9.65,18.27-2.03,4.81-3.8,10.39-2.33,15.61,1,3.54,3.47,6.28,6.48,8.28,3.55,2.36,7.71,3.79,11.78,4.97,5.89,1.7,11.93,2.85,17.95,3.93,3.14.56,6.28,1.12,9.42,1.68,3.18.56,6.46.77,9.63.05,4.65-1.05,8.45-4.16,10.32-8.54,2.62-6.13,1.5-13.29.65-19.68-1.04-7.87-2.63-16.36-.02-24.08h-2.17c1.39,7.24,7.78,12.07,14.69,13.63,2.13.48,4.33.71,6.51.71,2.21,0,4.61-.08,6.61-1.13,3.92-2.05,5.39-7.06,3.37-10.96-.93-1.79-1.7-3.46-2.05-5.49-.49-2.8.49-5.26,1.55-7.81l-1.08.83c4.61-.51,9.24-.78,13.87-.84,1.81-.02,3.62-.17,5.43-.24,2.06-.08,4.09-.07,6.14-.35,6.46-.89,11.78-4.22,15.71-9.37,1.94-2.54,3.52-5.34,5.09-8.12-.69-.09-1.37-.18-2.06-.27,1.83,6.8,6.58,12.12,13.06,14.83,7,2.94,15.45,2.98,22.57.46-.29-.04-.58-.08-.87-.11,3.05,1.49,6.9.96,10.2.96,1.15,0,2.33.07,3.47-.04,2.68-.26,4.97-1.79,6.34-4.09-.59.08-1.18.15-1.77.23,4.26,4.04,10.13,4.95,15.8,4.47-.36-.47-.72-.95-1.08-1.42-.41,2.09-.81,4.18-1.22,6.26-.47,2.41-.81,4.72-.2,7.16,1.92,7.75,11.04,11.82,18.39,9.33,3.91-1.32,6.99-4.44,8.29-8.35-.63.17-1.25.33-1.88.5,7.28,7.22,20.87,4.68,24.14-5.3-.63.17-1.25.33-1.88.5,5.44,5.9,14.9,5.92,20.72.61,2.09-1.91,3.41-4.17,3.95-6.93.5-2.53,1.44-8.44,1.64-9.34-.17.22-.34.45-.52.67,3.1-1.58,6.21-3.14,9.29-4.76-.45-.06-.91-.12-1.36-.18,6.39,5.08,15.99,4.48,21.74-1.35,5.65-5.73,5.74-14.95.23-20.8-3.1-3.29-7.49-5.03-11.97-5.08-1.45-.02-1.45,2.23,0,2.25,6.7.07,13.09,4.84,13.81,11.76.72,6.94-4.45,12.94-11.13,14.22-3.85.74-8-.14-11.08-2.59-.41-.33-.88-.43-1.36-.18-2.13,1.12-4.29,2.2-6.43,3.3-.88.45-1.79.86-2.64,1.35-.35.2-.57.39-.74.79-.23.53-1.34,7.96-1.81,10.21-.72,3.43-3.89,6.23-7.03,7.49-4.69,1.89-10.28.69-13.71-3.02-.6-.65-1.63-.27-1.88.5-2.75,8.38-14.35,10.29-20.38,4.3-.62-.62-1.62-.3-1.88.5-2.37,7.13-11.08,9.2-17.26,5.66-2.66-1.52-4.54-4.06-5.17-7.06-.41-1.94-.05-3.76.32-5.66.4-2.05.8-4.11,1.2-6.16.13-.66-.3-1.49-1.08-1.42-5.06.43-10.38-.18-14.21-3.81-.53-.5-1.39-.41-1.77.23-1.11,1.86-2.97,2.96-5.14,3.01-.8.02-1.6,0-2.39,0-2.23,0-4.48.06-6.71,0-.47-.01-.94-.05-1.4-.17-.58-.14-1.14-.55-1.72-.62-.54-.06-1.14.26-1.65.42-.68.21-1.38.4-2.07.55-2.6.59-5.28.79-7.94.71-4.52-.13-9.05-1.21-12.93-3.58-4.38-2.68-7.38-6.87-8.71-11.81-.25-.93-1.58-1.11-2.06-.27-2.65,4.67-5.37,9.61-9.83,12.8-2.55,1.82-5.48,2.94-8.56,3.48-1.92.34-3.84.36-5.78.4-1.85.04-3.7.22-5.56.26-4.88.1-9.72.31-14.57.85-.56.06-.87.32-1.08.83-.8,1.92-1.64,3.9-1.77,6-.12,1.81.28,3.69.83,5.4.48,1.47,1.33,2.68,1.89,4.09.79,1.98.43,4.32-.94,5.95-1.42,1.7-3.38,2.1-5.5,2.23-2.02.13-4.08.06-6.08-.25-3.46-.55-6.89-1.79-9.64-4.01-2.65-2.13-4.49-5.02-5.13-8.37-.22-1.17-1.84-.97-2.17,0-4.27,12.63,2.02,25.65.72,38.46-.47,4.63-2.65,8.97-6.91,11.15-5.47,2.8-11.68,1-17.37.03-6.03-1.03-12.06-2.11-18-3.59-4.32-1.08-8.7-2.33-12.66-4.41-2.7-1.42-5.26-3.29-6.76-6.01-2.48-4.49-1.16-9.91.52-14.42,2.58-6.9,6.51-13.27,10.14-19.65,2.87-5.05,6.08-10.22,7.88-15.77.19-.57-.22-1.24-.79-1.38-2.58-.68-4.51-2.84-4.58-5.57-.03-1.25.33-2.53.55-3.75.48-2.59,1.16-5.14,1.65-7.72.13-.71-.3-1.42-1.08-1.42-1.35,0-2.7.01-4.05,0-2.55-.02-4.88-1.37-5.79-3.84-.88-2.39.22-5.28.74-7.66.75-3.37,1.49-6.73,2.24-10.1.54-2.44.78-5.26,2.85-6.94,1.61-1.3,3.43-1.31,5.37-1.31h4.51c.46,0,.99-.35,1.08-.83.31-1.58.62-3.17.92-4.75.37-1.91.58-3.9,1.99-5.38,2.36-2.48,6.33-1.82,9.43-1.82h12.44c4.33,0,8.69-.04,12.96.79,6.36,1.24,11.82,4.76,12.84,11.61.11.76,1.08.97,1.65.67,4.52-2.36,9.73-3.09,14.77-3.23,5.42-.16,11.36.03,16.16,2.85.43.25,1.01.18,1.36-.18,2.69-2.71,7.33-1.89,10.82-1.89h5.18c2.21,0,4.06.56,5.53,2.33.37.44,1.23.44,1.59,0,1.49-1.78,3.36-2.33,5.58-2.33h5.49c3.57,0,8.83-.88,10.76,3.04.27.56,1.04.68,1.54.4,10.92-5.99,27.97-6.73,36.52,3.75.52.64,1.73.29,1.88-.5.63-3.23,1.24-6.47,1.89-9.71,1.21-6.02,8.27-9.43,13.95-8.42,3.82.68,6.91,2.99,8.65,6.44.35.7,1.25.66,1.77.23,5.82-4.93,15.43-3.31,19.04,3.45.37.7,1.23.66,1.77.23,7.4-5.89,20.5-.19,19.04,9.83-.09.65.28,1.5,1.08,1.42,5.73-.51,13.87.87,17.47,5.85.4.55.76,1.6,1.36,1.95.12.07.93.28.34.12.08.02.16.04.24.07.78.24,1.76.83,2.53,1.11,1.01.37,0,0,1,.41.34.14.67.27,1,.43.22.1.6.38.45.21.29.34.99.46,1.36.18,2.42-1.84,5.18-2.68,8.2-2.73,1.45-.02,1.45-2.27,0-2.25Z"/>
    </g>
  </g>
  <g id="Layer_10" data-name="Layer 10">
    <g>
      <path class="cls-7" d="M41.27,34.54l-2.65,13.62h-14.16l7.6-39.07h20.4c14.4,0,18.45,3.53,16.97,11.13-.88,4.5-3.84,8.3-9.12,9.55,4.26,1.52,6.83,2.5,5.3,10.37-.99,5.1-.06,8.03-.06,8.03h-14.34c-.19-.87-.07-3.36.61-6.84.99-5.1.36-6.78-6.24-6.78h-4.32ZM42.93,25.96h5.58c4.38,0,6.91-.98,7.44-3.69.54-2.77-1.61-4.07-4.91-4.07h-6.6l-1.51,7.76ZM92.22,48.16l.38-3.04c-4.12,2.98-7.89,3.85-12.57,3.85-5.94,0-10.7-2.66-9.55-8.57,2.51-12.92,23.75-7.06,24.79-12.37.4-2.06-2.31-2.33-3.63-2.33-1.74,0-4.14.33-4.92,2.77h-12c1.17-6.02,6.6-9.55,19.02-9.55,14.88,0,14.81,4.99,13.49,11.78l-2.59,13.3c-.32,1.63-.37,4.18-.37,4.18h-12.05ZM93.81,35.57c-4.43,1.79-9.66.92-10.38,4.61-.27,1.41,1.04,2.39,3.5,2.39,4.38,0,6.42-3.09,6.88-7ZM186.09,59.12h-9.12l.21-3.85c-2.83,2.5-7.17,4.78-13.95,4.78-11.04,0-19.68-6.46-17.03-20.08,2.43-12.48,12.74-21.06,26.72-21.06,10.38,0,17.77,4.88,17.64,14.49h-13.44c-.4-3.2-2.64-4.94-6.3-4.94-5.58,0-9.11,4.56-10.45,11.45-1.08,5.54-.14,10.58,7,10.58,2.88,0,6.89-1.79,8.14-4.5h-6.24l1.65-8.47h19.38l-4.2,21.6ZM248.46,59.18l2.67-13.88c.85-4.4,2.47-6.84,6.07-6.84,3,0,4.26,1.25,3.5,5.16l-3.04,15.56h12.45l3.45-17.51c1.58-8.14-2.12-11.94-8.96-11.94-5.16,0-8.43,1.09-12.31,4.99l.79-4.04h-11.58l-5.56,28.49h12.53ZM256.84,64.36l-.58,2.99s.1,4.47,4.64,5.43c5,1.06,7.38-3.26,7.38-3.26l1.02-5.15h-12.45ZM235.12,64.36l-1.46,7.46s.15,4.67,4.98,5.4c6,.9,7.25-3.73,7.25-3.73l1.76-9.13h-12.54ZM214.78,64.4l-2.27,11.62s-.87,4.3,4.26,5.48c5.63,1.3,6.87-3.22,6.87-3.22l2.7-13.88h-11.56ZM216.45,54.83l-.86,4.38h11.56l5.54-28.53h-12.5l-2.58,13.56c-.85,4.4-2.47,6.84-6.07,6.84-3,0-4.26-1.25-3.5-5.16l2.95-15.25h-12.46l-3.35,17.2c-1.58,8.14,2.12,11.94,8.96,11.94,5.16,0,8.43-1.09,12.31-4.99ZM13.61,39.96l5.98.21,3.55-18.1-5.52-.21-4.01,18.1ZM295.47,37.47c-1.14,0-2.17.27-2.3.31-2.61.77-3.36,2.57-4.6,3.29-1.41.4-1.11.77-7.86-3.71l-3.08,15.83c9.14-5.69,9.28-5.35,10.94-4.84,1.02.71,1.97,2.53,4.6,3.29.17.05,1.18.31,2.31.31,4.42,0,8-3.24,8-7.24s-3.58-7.24-8-7.24Z"/>
      <path class="cls-6" d="M52.46,10.28c8.06,0,12.94,1.16,14.89,3.53,1.16,1.41,1.45,3.37.9,6.16-.51,2.61-2.25,7.2-8.22,8.61l-3.95.93,3.83,1.36c4.15,1.48,5.87,2.09,4.53,9.01-.62,3.2-.52,5.61-.34,7.06h-11.77c.01-1.08.19-2.92.67-5.41.55-2.83.65-4.87-.54-6.31-1.11-1.35-3.11-1.9-6.88-1.9h-5.31l-.19.97-2.46,12.65h-11.71l7.14-36.67h19.41M41.48,27.16h7.04c3.31,0,7.8-.48,8.62-4.66.35-1.78-.23-2.94-.78-3.6-1.02-1.24-2.86-1.9-5.31-1.9h-7.59l-.19.97-1.51,7.76-.28,1.43M93.75,20.11c6.39,0,10.27.93,11.85,2.85,1.3,1.58,1.16,3.94.46,7.5l-2.59,13.3c-.19,1-.29,2.29-.34,3.21h-9.54l.21-1.69.35-2.75-2.24,1.62c-3.6,2.61-6.93,3.62-11.87,3.62-3.4,0-6.13-.94-7.48-2.58-.96-1.16-1.26-2.7-.89-4.57,1.36-7,8.92-7.8,15.59-8.51,4.63-.49,8.63-.92,9.2-3.87.22-1.12-.17-1.88-.54-2.33-.98-1.19-2.86-1.44-4.26-1.44-2.86,0-4.78.93-5.72,2.77h-9.63c1.75-4.87,7.36-7.15,17.45-7.15M86.92,43.77c4.53,0,7.47-2.94,8.07-8.06l.24-2.01-1.88.76c-1.4.57-2.92.85-4.38,1.13-3,.56-6.09,1.14-6.72,4.37-.17.86.04,1.7.57,2.35.79.96,2.21,1.47,4.1,1.47M172.92,20.11c5.77,0,10.34,1.53,13.19,4.42,1.96,1.99,3.05,4.57,3.23,7.67h-11.22c-.81-3.15-3.42-4.94-7.29-4.94-5.85,0-10.09,4.53-11.63,12.42-.81,4.16-.37,7.31,1.32,9.36,1.45,1.76,3.76,2.65,6.86,2.65,3.29,0,7.75-1.99,9.23-5.2l.78-1.7h-6.66l1.18-6.07h16.93l-3.74,19.2h-6.86l.14-2.59.16-2.86-2.15,1.9c-3.36,2.97-7.79,4.48-13.15,4.48-5.85,0-10.62-1.87-13.42-5.27-2.7-3.28-3.52-7.78-2.44-13.38,2.37-12.2,12.4-20.09,25.54-20.09M18.57,23.11l3.12.12-3.08,15.71-3.52-.13,3.48-15.71M264.61,30.93c3.1,0,5.34.81,6.66,2.42,1.44,1.75,1.82,4.48,1.12,8.09l-3.26,16.54h-10.01l2.77-14.13c.46-2.39.26-4.01-.66-5.12-1.08-1.31-2.81-1.46-4.01-1.46-5.08,0-6.54,4.17-7.25,7.81l-2.49,12.9h-10.08l5.1-26.09h9.14l-.51,2.61-.75,3.88,2.78-2.8c3.44-3.47,6.34-4.64,11.46-4.64M231.24,31.89l-5.08,26.13h-9.11l.58-2.95.76-3.88-2.79,2.81c-3.44,3.47-6.34,4.64-11.46,4.64-3.1,0-5.34-.81-6.66-2.42-1.44-1.75-1.82-4.48-1.12-8.09l3.16-16.23h10.02l-2.68,13.82c-.46,2.39-.26,4.01.66,5.12,1.08,1.31,2.81,1.46,4.01,1.46,5.08,0,6.54-4.17,7.25-7.81l2.4-12.59h10.06M295.47,38.67c3.75,0,6.8,2.71,6.8,6.04s-3.05,6.04-6.8,6.04c-1.04,0-1.97-.26-1.97-.26-1.54-.45-2.38-1.33-3.13-2.1-.37-.38-.72-.75-1.12-1.02l-.15-.11-.18-.05-.16-.05c-.41-.13-.84-.26-1.4-.26-1.27,0-2.68.57-8.04,3.84l2.21-11.38c3.89,2.56,4.98,3.15,6.05,3.15.43,0,.77-.11,1.07-.2.07-.02.15-.05.24-.07l.15-.04.13-.08c.58-.34,1.04-.81,1.49-1.27.72-.74,1.46-1.5,2.85-1.91,0,0,.94-.26,1.97-.26M267.83,65.56l-.69,3.51c-.37.58-1.92,2.67-4.7,2.67-.42,0-.85-.05-1.29-.14-3.21-.68-3.63-3.56-3.68-4.17l.37-1.87h10M246.2,65.56l-1.47,7.64c-.14.44-1.08,2.93-4.6,2.93-.41,0-.86-.03-1.31-.1-3.44-.52-3.89-3.43-3.95-4.13l1.24-6.34h10.1M224.88,65.6l-2.41,12.39c-.13.4-.95,2.54-3.79,2.54-.51,0-1.06-.07-1.65-.2-3.74-.86-3.44-3.55-3.35-4.08l2.08-10.65h9.12M52.46,9.08h-20.4l-7.6,39.07h14.16l2.65-13.62h4.32c6.6,0,7.23,1.68,6.24,6.78-.68,3.47-.8,5.97-.61,6.84h14.34s-.93-2.93.06-8.03c1.53-7.87-1.04-8.85-5.3-10.37,5.28-1.25,8.24-5.05,9.12-9.55,1.48-7.6-2.58-11.13-16.97-11.13h0ZM42.93,25.96l1.51-7.76h6.6c3.3,0,5.45,1.3,4.91,4.07-.53,2.71-3.06,3.69-7.44,3.69h-5.58ZM93.75,18.91c-12.42,0-17.85,3.53-19.02,9.55h12c.77-2.44,3.18-2.77,4.92-2.77,1.32,0,4.03.27,3.63,2.33-1.03,5.32-22.27-.54-24.79,12.37-1.15,5.92,3.61,8.57,9.55,8.57,4.68,0,8.45-.87,12.57-3.85l-.38,3.04h12.05s.05-2.55.37-4.18l2.59-13.3c1.32-6.78,1.39-11.78-13.49-11.78h0ZM93.81,35.57c-.46,3.91-2.5,7-6.88,7-2.46,0-3.77-.98-3.5-2.39.72-3.69,5.95-2.82,10.38-4.61h0ZM172.92,18.91c-13.98,0-24.29,8.57-26.72,21.06-2.65,13.62,5.99,20.08,17.03,20.08,6.78,0,11.12-2.28,13.95-4.78l-.21,3.85h9.12l4.2-21.6h-19.38l-1.65,8.47h6.24c-1.25,2.71-5.26,4.5-8.14,4.5-7.14,0-8.08-5.05-7-10.58,1.34-6.89,4.87-11.45,10.45-11.45,3.66,0,5.9,1.74,6.3,4.94h13.44c.13-9.61-7.26-14.49-17.64-14.49h0ZM17.62,21.87l-4.01,18.1,5.98.21,3.55-18.1-5.52-.21h0ZM264.61,29.73c-5.16,0-8.43,1.09-12.31,4.99l.79-4.04h-11.58l-5.56,28.49h12.53l2.67-13.88c.85-4.4,2.47-6.84,6.07-6.84,3,0,4.26,1.25,3.5,5.16l-3.04,15.56h12.45l3.45-17.51c1.58-8.14-2.12-11.94-8.96-11.94h0ZM232.69,30.69h-12.5l-2.58,13.56c-.85,4.4-2.47,6.84-6.07,6.84-3,0-4.26-1.25-3.5-5.16l2.95-15.25h-12.46l-3.35,17.2c-1.58,8.14,2.12,11.94,8.96,11.94,5.16,0,8.43-1.09,12.31-4.99l-.86,4.38h11.56l5.54-28.53h0ZM280.7,37.35l-3.08,15.83c6.7-4.17,8.56-5.1,9.74-5.1.43,0,.76.12,1.21.26,1.02.71,1.97,2.53,4.6,3.29.17.05,1.18.31,2.31.31,4.42,0,8-3.24,8-7.24s-3.58-7.24-8-7.24c-1.14,0-2.17.27-2.3.31-2.61.77-3.36,2.57-4.6,3.29-.4.11-.66.22-.98.22-.82,0-2.03-.72-6.88-3.94h0ZM269.29,64.36h-12.45l-.58,2.99s.1,4.47,4.64,5.43c.54.11,1.06.17,1.54.17,3.95,0,5.84-3.42,5.84-3.42l1.02-5.15h0ZM247.66,64.36h-12.54l-1.46,7.46s.15,4.67,4.98,5.4c.53.08,1.03.12,1.49.12,4.72,0,5.76-3.85,5.76-3.85l1.76-9.13h0ZM226.34,64.4h-11.56l-2.27,11.62s-.87,4.3,4.26,5.48c.71.16,1.34.23,1.92.23,4,0,4.96-3.45,4.96-3.45l2.7-13.88h0Z"/>
    </g>
    <g>
      <path class="cls-5" d="M253.89,25.5l.69-3.56s.87-4.3-4.26-5.48c-5.63-1.3-6.87,3.22-6.87,3.22l-1.14,5.82h11.58ZM211.8,25.5l2.29-11.82s-.1-4.47-4.64-5.43c-5-1.06-7.38,3.26-7.38,3.26l-2.73,13.98h12.45ZM233.5,25.5l1.53-7.88s-.15-4.67-4.98-5.4c-6-.9-7.25,3.73-7.25,3.73l-1.82,9.55h12.52ZM23.69,53.1l-1.01,5.47c20.48,0-20.34,43.14-13.83,54.26,4.11,7.02,29.86,10.13,38.11,11.8,24.4,4.94,4.55-27.03,11.91-47.85,3.2-9.05,24.52-15.26,49.69-15.47.96,0,4.25-.27,6.53-.27,11.1,0,13.91-5.99,18.92-14.79l15.24-26.54h-12l-8.87,17.53-2.11-17.53h-12.54l5.28,25.89c.65,3.15-2.45,7.89-6.35,7.89l-88.97-.4ZM87.21,69.51c-6.03.91-15.34,4.44-14.96,7.43.06,4.44,5.59,10.96,16.36,9.61-3.26-4.84-5.78-11.81-1.39-17.04Z"/>
      <path class="cls-3" d="M207.91,9.29c.42,0,.85.05,1.29.14,3.22.68,3.63,3.57,3.68,4.17l-2.07,10.7h-10.01l2.41-12.34c.38-.58,1.92-2.66,4.7-2.66M228.56,13.31c.41,0,.86.03,1.31.1,3.44.52,3.89,3.44,3.95,4.13l-1.31,6.76h-10.08l1.53-8.06c.14-.44,1.08-2.93,4.6-2.93M248.41,17.43c.51,0,1.06.07,1.65.2,3.74.86,3.44,3.55,3.35,4.08l-.5,2.59h-9.13l.85-4.33c.13-.4.95-2.54,3.79-2.54M147.17,20.92l-14.21,24.74-.74,1.3c-4.55,8.03-7.29,12.88-17.14,12.88-1.42,0-3.17.1-4.58.18-.86.05-1.6.09-1.95.09-21.77.19-46.95,5.36-50.81,16.27-3.01,8.51-1.64,18.62-.44,27.53,1.09,8.1,2.04,15.1-.67,18.2-1.08,1.23-2.77,1.83-5.16,1.83-1.23,0-2.67-.16-4.27-.49-1.41-.29-3.32-.61-5.54-.99-10.01-1.71-28.65-4.89-31.78-10.24-2.53-4.32,3.99-15.74,9.73-25.82,6.53-11.45,12.17-21.34,9.3-26.28-.89-1.53-2.5-2.43-4.81-2.68l.58-3.14,87.97.39c2.04,0,4.08-1.07,5.6-2.93,1.6-1.96,2.34-4.42,1.93-6.4l-4.99-24.45h10.01l1.98,16.47.47,3.93,1.79-3.54,8.54-16.87h9.19M84.73,71.21c-1.34,2.92-2.05,7.71,1.8,14.3-.25,0-.49.01-.73.01-7.98,0-12.31-5-12.36-8.61v-.07s0-.07,0-.07c-.15-1.22,5.16-4.14,11.3-5.58M207.91,8.09c-3.95,0-5.84,3.42-5.84,3.42l-2.73,13.98h12.45l2.29-11.82s-.1-4.47-4.64-5.43c-.54-.11-1.06-.17-1.54-.17h0ZM228.56,12.11c-4.72,0-5.76,3.85-5.76,3.85l-1.82,9.55h12.52l1.53-7.88s-.15-4.67-4.98-5.4c-.53-.08-1.03-.12-1.49-.12h0ZM248.41,16.23c-4,0-4.96,3.45-4.96,3.45l-1.14,5.82h11.58l.69-3.56s.87-4.3-4.26-5.48c-.71-.16-1.34-.23-1.92-.23h0ZM149.25,19.72h-12l-8.87,17.53-2.11-17.53h-12.54l5.28,25.89c.65,3.15-2.45,7.89-6.35,7.89l-88.97-.4-1.01,5.47c20.48,0-20.34,43.14-13.83,54.26,4.11,7.02,29.86,10.13,38.11,11.8,1.71.35,3.2.51,4.5.51,17.25,0,.56-29,7.41-48.36,3.2-9.05,24.52-15.26,49.69-15.47.96,0,4.25-.27,6.53-.27,11.1,0,13.91-5.99,18.92-14.79l15.24-26.54h0ZM87.21,69.51c-6.03.91-15.34,4.44-14.96,7.43.06,4.03,4.64,9.79,13.56,9.79.89,0,1.82-.06,2.8-.18-3.26-4.84-5.78-11.81-1.39-17.04h0Z"/>
    </g>
  </g>
  <g id="Light_Painter" data-name="Light Painter">
    <g>
      <path class="cls-4" d="M172.65,153.22c-.29,0-.53-.02-.76-.03-.05,0-.09,0-.14-.02-.49-.1-.9-.45-1.16-.97-.24-.49-.39-1.26-.07-1.93.13-.3.27-.63.41-.95.32-.73.63-1.42.89-2.14.25-.76.5-1.56.76-2.36.67-2.08,1.36-4.24,2.12-6.34.76-2.07,1.62-4.09,2.46-6.04l.71-1.66c1.28-3.16,2.62-6.44,4.03-9.74.9-2.23,1.83-4.41,2.76-6.59l.29-.64c.46-1.04.91-2.03,1.4-3.03.38-.76.77-1.52,1.16-2.27.57-1.09,1.15-2.22,1.69-3.36.33-.75.64-1.57.94-2.37.31-.82.62-1.67.99-2.5.82-1.8,1.66-3.53,2.47-5.2.51-1.11.99-2.27,1.48-3.52-.36.28-.72.55-1.1.82l-8.19,6.41c-.44.34-.94.73-1.51.98-.28.16-.56.29-.84.43-.41.2-.79.38-1.1.61-.63.39-1.17.56-1.73.56-.83,0-1.49-.39-1.99-.75-.11-.05-.31-.13-.46-.17-.28-.1-.51-.32-.61-.6-.1-.28-.08-.59.07-.85.15-.26.34-.58.62-.93.02-.03.05-.06.08-.09l5.01-4.95c.09-.82,1.43-2.08,7.4-7.18l1.93-1.65c1.69-1.33,3.47-2.46,5.2-3.54.95-.6,1.9-1.2,2.83-1.83.24-.22.52-.63.7-1.01.25-.47.44-.93.64-1.42.2-.49.41-1,.67-1.5.21-.55.6-.94.97-1.31.09-.09.19-.19.29-.29.19-.2.45-.31.72-.31.09,0,.18.01.26.04.36.1.63.38.71.74.4,1.75.88,1.75,1.19,1.75h0c.25,0,.57-.06.96-.18,1.53-.44,3.11-.75,4.64-1.05.9-.17,1.8-.35,2.68-.55.92-.18,1.71-.26,2.46-.26,1.72,0,3.2.44,4.51,1.34.96.62,1.77,1.53,2.55,2.41l.51.57c.37.42.52.91.64,1.3.04.14.08.28.14.4.05.12.08.25.08.38,0,.17.03.29.08.46.07.26.03.54-.11.77-.07.12-.12.24-.15.32.29,1.61-.17,3.1-.58,4.42-.14.47-.29.94-.4,1.4-.17.77-.66,1.41-1.1,1.98-.14.19-.29.37-.41.56-.19.25-.33.44-.47.63-.33.45-.67.91-1.07,1.34-.13.18-.31.43-.49.68-.6.83-1.21,1.69-2.05,2.31-.6.41-1.01,1.07-1.44,1.76-.31.49-.62.99-1.02,1.45-1.1,1.14-2.19,2.26-3.3,3.23-1.66,1.26-3.19,2.32-4.73,3.29-.99.6-2.01,1.15-2.99,1.67-.54.29-1.08.58-1.61.87-.07.04-.15.07-.24.09-.06.02-.13.03-.2.04-1.06,1.04-2.29,1.3-3.38,1.53-.51.11-1,.21-1.43.39-.63.28-.95.58-1.19,1.12-.5,1.02-3.72,6.46-7.81,13.34-4.98,8.39-11.8,19.88-12.32,21.2-.27.7-.62,1.34-.97,1.95-.54.97-1.05,1.88-1.2,3.01-.13.77-.61,1.36-1.03,1.88-.16.2-.32.39-.46.6,0,0-.03.08-.06.15-.06.14-.13.28-.2.4-.13.23-.35.39-.61.46l-.14.04c-.08.02-.16.03-.24.03h-.07ZM216.28,79.86c-1.51.33-3.03.68-4.46,1.18-.62.22-1.24.54-1.9.87-.8.4-1.63.82-2.53,1.1-.45.12-.56.29-.84,1.26-.04.14-.08.29-.13.43,0,.04,0,.1.01.17,0,.12.02.23.02.35,0,.14.02.3.03.47.04.54.08,1.15-.05,1.76-.19.72-.41,1.36-.63,1.98-.21.61-.42,1.19-.57,1.79,0,.04-.02.07-.04.11-.33.82-.61,1.67-.89,2.67-.01.08-.02.23-.03.39-.02.37-.05.8-.24,1.22-.55,1.37-1.1,2.78-1.64,4.18-.31.79-.61,1.58-.92,2.37.84-.37,1.69-.78,2.48-1.3,1.05-.69,2.04-1.56,3.1-2.48.54-.47,1.07-.93,1.61-1.37l.6-.48c.61-.49,1.24-1,1.8-1.52,1.24-1.08,1.95-2.64,2.7-4.28l.12-.28c.47-1.08.9-2.18,1.35-3.47.16-.53.25-1.11.35-1.73l.09-.55c.25-1.56.43-3.21.6-4.82ZM70.31,142.4c-.14,0-.28-.03-.41-.09-.12-.05-.24-.1-.37-.14-.34-.12-.72-.26-1.08-.53l-.1-.06c-.89-.58-1.81-1.18-2.44-2.59-.05-.11-.13-.24-.21-.36-.16-.27-.36-.59-.47-1-.22-.14-.38-.35-.44-.61l-.05-.21c-.07-.28-.02-.57.14-.81.1-.15.22-.29.33-.43.39-.49.38-.52.29-.75-.02-.04-.03-.08-.04-.13-.16-.63.25-1.31.5-1.58,1.34-1.79,2.5-3.7,3.5-5.77.39-.79.81-1.56,1.22-2.33.92-1.7,1.86-3.46,2.52-5.38.27-.73.64-1.35,1-1.96.24-.4.46-.78.64-1.16.96-1.84,1.89-3.72,2.78-5.63,1.13-2.22,2.18-4.51,3.2-6.72.4-.88.76-1.72,1.13-2.56.73-1.68,1.48-3.42,2.31-5.1.38-.87.86-1.7,1.33-2.5.39-.67.76-1.31,1.07-1.98.63-1.21,1.19-2.47,1.73-3.68.28-.63.56-1.26.85-1.88.31-.62.63-1.2.94-1.78.47-.87.91-1.69,1.3-2.52.73-1.45,1.4-2.88,2.05-4.27.01-.02.05-.11.06-.13.61-1.08,1.19-2.17,1.78-3.26.59-1.11,1.19-2.22,1.8-3.31.68-1.26,1.4-2.47,2.09-3.65l.07-.12c.13-.23.35-.39.61-.46l.36-.09c.08-.02.16-.03.24-.03.18,0,.35.05.51.14.12.07.24.16.36.25.06.05.12.09.18.13.03.02.06.04.09.06.09.06.19.12.29.17.35.19.83.45,1.1.98.33.54.57,1.1.81,1.64.15.35.3.69.47,1.02.06.12.1.24.11.37l.13,1.38c.01.14,0,.28-.05.42-.17.48-.37.94-.58,1.4-.3.68-.59,1.32-.7,1.97-.27,1.97-1.12,3.6-1.93,5.17-.35.67-.68,1.31-.96,1.97-.93,1.98-1.93,3.88-2.9,5.73l-.9,1.72c-.04.12-.07.25-.11.37-.1.38-.22.81-.46,1.21-.22.46-.51.99-.81,1.52-.36.65-.73,1.32-1.04,2-.75,1.67-1.49,3.35-2.22,5.02-.74,1.69-1.48,3.37-2.24,5.06-.62,1.46-1.25,2.83-1.92,4.18-.23.48-.45.98-.68,1.49-.46,1.03-.94,2.1-1.5,3.12-.55,1.04-1.15,2.04-1.72,3.01-.43.71-.85,1.42-1.26,2.15-.25.48-.5.97-.75,1.46.81-.82,1.63-1.63,2.46-2.4.83-.77,1.73-1.4,2.6-2,.6-.41,1.16-.8,1.69-1.23.44-.39.89-.83,1.34-1.27.47-.47.94-.93,1.44-1.37,3.11-2.79,6.28-5.56,9.09-8,.89-.68,1.72-1.26,2.44-1.73.11-.06.21-.11.31-.15.62-1.84,1.47-4.35,1.47-4.35.25-.73.53-1.56,1.14-2.23.2-.24.44-.44.7-.61-.78-.4-1.5-.94-1.86-1.64-.43-.66.06-1.82.63-2.2.04-.03.09-.05.13-.07l.6-.27c1.32-.6,2.57-1.17,3.91-1.71.26-.15.53-.23.75-.29.25-.1.55-.12.87-.12.44,0,1.26.04,1.85.33.54.22.77.79.93,1.2.04.11.08.23.14.32.03.05.06.1.08.15.28.66.26,1.48-.07,2.23-.32.73-.87,1.31-1.52,1.59-.3.12-.58.25-.86.37-.47.21-.95.43-1.44.59.28.17.6.35.95.55.25.14.52.29.79.45.39.23.58.7.45,1.14-.25.86-.49,1.72-.73,2.58-.48,1.69-.97,3.43-1.52,5.17-.09.35-.38,1.4-.82,2.69.42-.49.84-.98,1.3-1.46l.51-.68c-.26-.64-.36-1.27-.3-1.92.02-.25.92-5.16,2.45-7.65.22-.34.4-.65.56-.93.3-.52.58-1.01.98-1.45l.56-.65c.91-1.05,1.85-2.14,2.9-3.06,1.67-1.41,3.54-2.69,4.98-3.65.04-.03.09-.05.14-.08,1.07-.49,2.14-.74,3.19-.74,2.32,0,3.97,1.16,4.95,1.86.13.09.28.19.39.27h.02c.18-.05.43-.12.71-.13.02,0,.04,0,.06,0,.25,0,.48.09.67.26.07.05.18.09.3.15.54.26,1.66.8,1.46,2.02-.54,2.72-2.7,7.9-5.26,13.6,1.34-1.59,2.73-3.11,4.19-4.59,3.88-11.5,12.78-37.88,13.59-39.97.72-1.61,1.71-1.93,2.41-1.93.8,0,1.64.42,2.56,1.3.53.44.98.92,1.36,1.47.77.95,1.01,1.96.7,3.02-.89,3.03-4.46,13.46-6.59,19.69-.16.48-.32.93-.46,1.36.58-.53,1.12-1.01,1.61-1.35.72-.51,1.57-.79,2.45-.79,1.15,0,2.27.47,3.16,1.32.92.9,1.88,2.02,2.18,3.53.1.38.05.79,0,.99-.1.88-.9,4.22-2.01,8.85-.19.79-.39,1.61-.57,2.37.32-.29.67-.62,1.08-.99.02-.38.11-.79.26-1.21l7.91-22.73c-1.71.43-2.76.62-3.79.8-.69.12-1.37.25-2.24.45-.12.03-.29.05-.45.05-.44,0-.84-.14-1.16-.25l-.23-.07-.35-.11c-.66-.19-1.4-.41-1.92-.94-.61-.58-1.13-1.33-1.4-2.05-.01-.03-.02-.07-.03-.1-.07-.25-.08-.65.21-1.14.23-.39.68-.86,1.24-1.01,1.27-.46,9.49-2.94,12.93-3.73,2.31-6.45,4.99-13.41,5.13-13.65.02-.04.05-.08.08-.12l.07-.09c.35-.45.79-1,1.47-1,1.29.03,2.32.18,3.29.45.86.18,1.55.7,1.88,1.44.36.82.23,1.84-.36,2.87-.41.94-2.21,5.84-2.55,6.98-.01.04-.08.2-.17.47l2.72-.84,1.38-.5c.32-.09.64-.17.98-.17.2,0,.39.03.57.09.3.1.6.2.91.3.95.31,1.94.63,2.86,1.13.05.03.11.06.15.1.47.37,1.11,1.46,1.05,2.31-.13.89-.55,1.87-1.35,2.23-1.1.42-1.72.59-3.57,1.11-1.57.44-4.03,1.14-8.43,2.43-1.34,3.92-2.85,8.06-3.55,9.94l-.38,1.02c-.56,1.51-1.52,4.05-2.35,6.31.82-.9,1.7-1.87,2.51-2.76,2.35-2.59,4.57-5.04,5.12-5.59.19-.2.45-.3.71-.3.18,0,.35.05.51.14.4.24.58.71.45,1.15-.52,1.71-11.29,16.2-12.4,17.58l-.41.7c-.53,1-2.78,2.05-3.8,2.05-.08,0-.16,0-.23-.01-.47-.07-.85-.25-1.17-.46-2.47,3.24-2.72,3.44-2.87,3.56-1.14.84-2.34,1.25-3.6,1.25-.93,0-1.9-.23-2.9-.67-2.02-.91-2.64-1.84-2.66-4.01-.1-2.01.65-3.68,1.37-5.3.12-.27.24-.54.36-.81.55-1.41,1.07-2.84,1.61-4.3-4.5,2.8-6.43,8.68-7.41,11.67-.19.56-.34,1.03-.47,1.37-.71,1.9-2.73,2.93-6.02,3.08-.04,0-.07,0-.11,0-.57,0-2.09-.72-2.42-1.23-.04-.07-.08-.14-.11-.22-.06.07-.11.13-.17.2-2.8,3.31-5.21,6.77-7.17,10.28-.21.47-.43.92-.64,1.29-.23.7-.94,2.69-2.15,4.86-1.77,2.74-4.39,6.8-8.95,6.8-1.34,0-2.8-.35-4.34-1.04-.37-.17-.61-.55-.59-.96.02-.41.28-.77.67-.9.03-.01,3.88-1.48,6.69-8.1,1.27-3.04,2.69-6.36,3.59-8.38-.66.08-1.35.15-1.95.15-.44,0-.79-.04-1.09-.11-1.09-.26-2.61-.73-3.81-1.88-.73,1.38-1.38,2.55-1.73,3.04l-.25.33c-.48.65-.97,1.32-1.65,1.87-1.01.88-2.17,1.79-3.55,2.33-.45.26-.97.4-1.53.4-1.29,0-2.65-.75-3.23-1.78-.17-.35-.28-.82-.33-1.41-1.97,1.83-5.77,5.47-6.26,5.97-.28.29-.57.59-.86.9-.77.81-1.57,1.65-2.42,2.43-.79.73-1.61,1.42-2.4,2.09-.77.65-1.57,1.33-2.33,2.03-.58.51-1.12,1.02-1.64,1.53-.71.68-1.45,1.39-2.25,2.04-.57.47-1.04,1.08-1.53,1.71-.3.39-.61.78-.94,1.15-.58.59-1.14,1.04-1.68,1.47-.38.3-.76.6-1.13.94-.47.43-.91.89-1.34,1.34-.27.28-.54.56-.82.84-1.07,1.01-2.05,1.99-3.03,2.97-.13.13-.34.27-.51.31l-1.04.27c-.08.02-.17.03-.25.03ZM124.46,96.36c-1.06,1.08-2.15,2.2-2.97,3.37-.94,1.33-1.66,2.89-2.28,4.39,2.37-2.36,4.19-5.15,5.89-8.42-.21.21-.42.43-.64.65ZM213.17,123.01c-1.97,0-3.71-.65-5.18-1.94-.3-.29-.51-.6-.72-.89-.1-.14-.2-.29-.31-.43-.07-.08-.12-.18-.15-.28-1.4-4.02,3.48-11.08,7.27-16.03l.27-.35c1.25-1.47,5.33-4.82,9.5-5.5.17-.02.28-.02.38-.02,1.42,0,2.1.97,2.6,1.68.17.24.33.46.49.64.02.01.12.09.14.1.78.54,2.13,1.78,2.46,3.97.09.39.11.88.06,1.59,0,.11-.03.21-.07.31,0,.02,0,.04-.01.06-.05,1.71-.1,4.03-.11,5.62.44-.38,1.03-.89,1.81-1.59.73-2.09,3.02-8.85,3.45-10.16l.08-.24c.25-.73.53-1.56,1.14-2.23.2-.24.44-.44.7-.61-.78-.4-1.5-.94-1.86-1.64-.43-.66.06-1.83.63-2.2.04-.03.09-.05.13-.07l.57-.26c1.33-.6,2.59-1.18,3.94-1.72.25-.14.53-.23.75-.29.25-.1.55-.12.87-.12.44,0,1.26.04,1.85.33.54.22.77.79.93,1.2.04.11.08.23.14.32.03.05.06.1.08.15.28.66.26,1.48-.07,2.23-.32.73-.87,1.31-1.52,1.59-.3.12-.58.25-.86.37-.47.21-.94.43-1.44.59.28.17.59.35.94.54.25.14.52.29.8.46.39.23.58.7.45,1.14-.25.86-.49,1.72-.73,2.57-.48,1.69-.97,3.43-1.52,5.17-.09.35-.38,1.4-.82,2.69.42-.49.84-.98,1.3-1.46l.79-1.06.13-.17c.13-.16.23-.29.33-.44,0,0,0,0,0,0,.19-.29.54-.52.88-.52.2,0,.39.06.55.17,1.12-3.24,2.37-7.39,3.3-10.47.64-2.11,1.14-3.78,1.43-4.62.53-1.63,1.66-1.98,2.51-1.98.04,0,.1,0,.14,0,.4.04.8.08,1.21.11.84.07,1.71.14,2.54.29.55.05,1.12.42,1.47.99.43.7.5,1.63.18,2.43-.09.26-.18.52-.27.79.86-.92,1.86-1.95,2.99-2.89.65-.52,1.4-.76,2.32-.76.41,0,.81.05,1.2.09.29.03.57.07.86.08.6.07,3.26,1.21,3.55,2.83.42,3-.15,5.9-1.16,8.89.8-.97,1.75-2.18,2.87-3.69l6.11-17.56c-1.71.43-2.75.62-3.78.8-.7.13-1.38.25-2.25.45-.12.03-.29.05-.45.05-.44,0-.83-.14-1.16-.24l-.23-.08-.35-.11c-.66-.19-1.41-.41-1.92-.94-.61-.58-1.13-1.33-1.4-2.04-.01-.03-.02-.07-.03-.1-.07-.25-.08-.65.21-1.14.23-.39.68-.86,1.24-1.01,1.26-.46,9.48-2.93,12.93-3.73,2.21-6.18,4.97-13.38,5.13-13.65.02-.04.05-.08.08-.11l.07-.09c.35-.45.79-1,1.48-1,1.26.03,2.32.18,3.29.45.86.18,1.55.7,1.88,1.43.36.82.23,1.84-.36,2.88-.41.95-2.21,5.84-2.55,6.97-.01.04-.08.2-.17.47l2.72-.84,1.38-.5c.33-.09.65-.17.98-.17.2,0,.39.03.57.09.3.1.6.2.9.3.96.31,1.94.64,2.86,1.13.05.03.1.06.15.1.47.37,1.11,1.46,1.05,2.31-.13.89-.55,1.88-1.35,2.23-1.1.42-1.72.59-3.58,1.11-1.57.44-4.03,1.14-8.42,2.43-1.32,3.88-2.84,8.04-3.55,9.94l-.34.91c-.58,1.53-1.55,4.13-2.39,6.42.81-.89,1.68-1.85,2.49-2.74,2.36-2.6,4.59-5.06,5.14-5.62.19-.2.45-.3.71-.3.02,0,.04,0,.07,0,.76-1.07,1.55-2.12,2.32-3.13l.33-.43c1.31-1.64,5.43-4.92,9.52-5.5.15-.02.26-.02.36-.02,1.42,0,2.1.97,2.6,1.68.16.22.3.43.46.6,0,0,.01,0,.03,0,.03,0,.07,0,.13,0,.16,0,.35-.02.55-.05.05,0,.1-.01.15-.01.1,0,.19.01.28.04,1.43.42,2.32,1.27,2.64,2.51.09.34,0,.69-.24.94,0,.01,0,.03,0,.05,0,.08-.02.16-.05.24-.16.48-.27.84-.36,1.15-.32,1.04-.46,1.52-1.29,3-1.76,2.57-9.67,4.32-12.05,4.79-.9,1.54-1.74,3.47-2.17,4.71,2.23-.63,6.87-2.99,10.39-4.79,1.65-.84,3.22-1.64,4.49-2.24.73-1.88,1.53-3.91,2.25-5.73.45-1.13.86-2.18,1.21-3.07-.97-.23-1.93-.69-2.68-1.68-.56-.59-.81-1.31-.69-2,.09-.77.89-1.62,1.54-1.78,6.24-1.36,11.29-2.96,15.92-5.07.97-.47,1.94-.71,2.87-.71,1.3,0,2.51.47,3.61,1.39.37.31.46.85.22,1.27l-.18.32c-.22.39-.45.8-.76,1.12-1.17,1.09-1.9,2.28-2.55,4.14-.72,1.75-2.03,4.76-3.09,7.14,2.25-1.76,5.53-4.5,7.49-6.4.18-.18.43-.28.69-.28-.02,0,.28-.03.65-.33.18-.15.41-.22.63-.22.27,0,.53.11.73.31.36.38.37.97.02,1.36,0,0-11.62,12.9-13.3,14.74-1.36,1.36-2.82,2.09-4.25,2.14-.01,0-.11,0-.13,0-.92,0-1.8-.42-2.42-1.16-.68-.8-.96-1.86-.78-2.91.17-1.12.44-2.21.78-3.28-.85,1.99-1.66,3.8-2.22,4.91l-.71,1.5c-1.89,3.42-5.84,3.98-6.75,4.06-.17.12-.37.18-.57.18s-.41-.06-.59-.19c-.38-.28-.51-.78-.33-1.21.19-.42.36-.84.54-1.26.31-.73.61-1.45.95-2.15.05-.14.1-.28.15-.43-4.03,2.83-8.81,6.11-9.38,6.49-1.25.92-2.86,1.45-4.87,1.6h-.32c-2.1,0-3.92-.64-5.43-1.9-.31-.31-.53-.61-.74-.9-.1-.14-.2-.29-.31-.43-.07-.09-.12-.18-.15-.28-.27-.79-.32-1.68-.18-2.64-2.9,4.02-5.88,8.01-6.44,8.7l-.41.7c-.53,1-2.78,2.05-3.8,2.05-.08,0-.16,0-.23-.01-.73-.11-1.21-.47-1.64-.79l-.2-.15c-.8-.58-1.27-1.29-1.4-2.12-3,4.02-6.65,7.97-9.46,7.97-.87,0-2.07-.35-2.87-2.03-.25-.45-.31-1.19-.14-1.7.43-1.14.84-2.26,1.25-3.39.42-1.13.83-2.26,1.25-3.38.38-1.02.86-2.31,1.25-3.37-1.13.55-2.35,1.4-3.61,2.82-.44.55-1.29,3.15-1.91,5.04-.88,2.68-1.45,4.36-1.99,5.13-1,1.3-2.06,1.92-3.26,1.92-.51,0-1.04-.12-1.58-.35-.08-.03-.16-.08-.23-.14-.82-.3-2.77-1.19-3.29-3.01-.44.8-.81,1.44-1.04,1.77l-.25.34c-.48.65-.97,1.31-1.65,1.86-1.01.88-2.17,1.79-3.56,2.33-.45.26-.97.4-1.53.4-1.29,0-2.65-.75-3.23-1.78-.08-.17-.23-.47-.31-1.16-1.69,1.34-2.59,1.53-3.16,1.53-1.26,0-2.27-.69-2.9-1.9-1.38,1.87-2.66,3.37-3.52,4.25-.41.36-.74.71-1.09,1.08-.56.6-1.14,1.21-1.88,1.71-1.34.99-3.05,1.55-4.92,1.6-.16.01-.36.02-.55.02ZM213.09,115.92s.09.01.17.01c.18,0,.4-.03.66-.09,1.88-.6,6.98-8.13,8.16-11.24-.77.18-1.77.56-2.55,1.37-2.38,2.54-6.69,8.52-6.44,9.95ZM295.26,87.88c-.25.31-.5.63-.76.96.04-.02.09-.04.13-.06.23-.32.43-.62.62-.91ZM316.14,80.45c-.1.12-.17.25-.22.36-.33.92-.85,2.3-1.47,3.84.14-.29.28-.58.42-.87.22-.55.57-1.46.92-2.41.12-.31.23-.62.35-.93Z"/>
      <path d="M173.79,53.81s0,0,.01,0c1.05.03,2.04.14,3.01.41,1.42.3,1.72,1.49.9,2.89-.38.84-2.26,5.94-2.62,7.15,0,0-.36.91-.75,2.28l4.55-1.4,1.43-.52c.2-.05.43-.11.64-.11.08,0,.16.01.24.04,1.23.43,2.5.77,3.63,1.37.28.23.71,1.01.67,1.46-.08.54-.36,1.21-.76,1.39-1.9.71-2.35.68-12.37,3.65-1.43,4.24-3.09,8.76-3.71,10.4-.92,2.47-4.05,10.79-4.36,11.91,0,0,0,0,0,0,.14,0,9.73-10.7,10.91-11.89-.44,1.45-11.29,16.16-12.26,17.3l-.47.79c-.16.47-2.09,1.53-2.92,1.53-.04,0-.07,0-.1,0-.54-.08-.93-.43-1.38-.76-.04-.03-.07-.06-.11-.09-1.62,2.14-3.03,3.96-3.29,4.17-.91.67-1.9,1.03-2.98,1.03-.78,0-1.61-.19-2.49-.58-1.68-.75-2.05-1.33-2.07-3.11-.1-2.13.86-3.87,1.65-5.71.8-2.07,1.54-4.12,2.33-6.25-.09-.05-.25-.08-.35-.21-7.09,2.8-9.16,12.04-10.1,14.44-.14.33-.61,2.24-5.17,2.45,0,0-.02,0-.03,0-.28,0-1.46-.59-1.58-.78-.02-.66.03-1.05.03-1.05,0,0,.26-.76.7-2.07-.89.99-1.77,1.99-2.61,3.01-2.73,3.24-5.19,6.7-7.27,10.43-.19.42-.43.93-.69,1.37-.29.89-.99,2.79-2.11,4.79-2.07,3.21-4.31,6.29-8.07,6.29-1.15,0-2.45-.29-3.93-.95,0,0,4.23-1.47,7.28-8.65,2.02-4.84,3.84-9.02,4.34-9.97-.96.08-2.49.34-3.61.34-.33,0-.62-.02-.85-.08-1.35-.32-2.75-.85-3.72-2.01-.18-.24-.35-.48-.49-.72-.65,1.23-1.91,3.63-2.38,4.29-.55.74-1.04,1.46-1.71,2.01-.97.84-2.08,1.73-3.37,2.21-.33.21-.7.3-1.09.3-.96,0-1.97-.58-2.36-1.27-.29-.6-.25-2.03-.13-3.25-.18.2-.37.38-.57.53-.8.65-6.88,6.46-7.47,7.06-1.06,1.09-2.09,2.25-3.24,3.29-1.56,1.44-3.17,2.68-4.74,4.12-1.33,1.16-2.5,2.43-3.85,3.52-1.04.86-1.71,2.01-2.58,2.97-.88.9-1.84,1.52-2.74,2.34-.78.72-1.47,1.5-2.18,2.2-1.08,1.02-2.08,2.03-3.08,3.03-.35.09-.7.18-1.05.27-.42-.19-.89-.29-1.26-.57-.9-.59-1.69-1.05-2.22-2.25-.32-.66-.79-1.06-.64-1.92-.14.04-.28.07-.42.11-.02-.07-.04-.14-.05-.21.43-.63,1.13-1.11.72-2.12-.04-.14.1-.47.27-.67,1.38-1.85,2.59-3.79,3.66-6,1.27-2.56,2.81-4.96,3.78-7.82.39-1.07,1.12-2,1.6-3.02.95-1.81,1.87-3.68,2.78-5.63,1.13-2.23,2.18-4.5,3.23-6.78,1.13-2.52,2.18-5.1,3.4-7.57.7-1.59,1.69-2.96,2.41-4.49.95-1.81,1.72-3.72,2.58-5.57.74-1.46,1.57-2.86,2.24-4.3.74-1.46,1.41-2.89,2.08-4.33,1.22-2.18,2.36-4.4,3.58-6.58.71-1.3,1.43-2.53,2.15-3.75.14-.04.28-.07.35-.09.18.1.37.28.54.38.37.28.93.43,1.11.83.51.83.83,1.79,1.28,2.64.04.44.09.94.13,1.38-.43,1.23-1.12,2.3-1.32,3.54-.36,2.62-1.85,4.64-2.83,6.9-1.2,2.54-2.51,4.96-3.8,7.45-.17.49-.25,1.03-.51,1.47-.58,1.19-1.33,2.35-1.89,3.61-1.51,3.37-2.95,6.71-4.46,10.08-.6,1.42-1.22,2.77-1.91,4.14-.72,1.53-1.36,3.1-2.16,4.58-.95,1.81-2.02,3.42-2.98,5.16-.89,1.72-1.72,3.42-2.61,5.14-.09.25-.15.56-.17.79.02.07.11.12.19.17,1.96-1.92,3.88-3.98,5.86-5.83,1.32-1.23,2.88-2.08,4.24-3.18.97-.85,1.84-1.81,2.81-2.66,3.02-2.71,6.05-5.36,9.09-8,.75-.56,1.56-1.15,2.33-1.64.17-.09.35-.12.53-.13.7-2.05,1.35-3.99,1.57-4.66.26-.74.49-1.54,1.01-2.12.42-.5,1-.73,1.61-.73.56,0,1.13.2,1.62.57.63.43,1.32.78,2.11,1.24-.75,2.57-1.43,5.13-2.24,7.72-.22.88-1.29,4.5-2.56,7.06.94-.69,1.82-1.59,2.63-2.47.69-.77,1.37-1.62,2.13-2.41.28-.37.55-.74.83-1.11.03-.04.06-.07.08-.11-.34-.6-.53-1.23-.47-1.95.02-.23.89-4.91,2.3-7.21.59-.9.91-1.65,1.43-2.23,1.09-1.25,2.16-2.57,3.38-3.62,1.53-1.29,3.23-2.47,4.88-3.57,1.01-.47,1.94-.65,2.77-.65,2.83,0,4.61,2.08,5.2,2.15.01,0,.02,0,.03,0,.23,0,.54-.15.89-.17.39.35,1.56.56,1.44,1.26-.77,3.92-5.12,13.3-9.32,22.34,1.07-1.61,2.14-3.23,3.3-4.79,2.11-2.77,4.36-5.37,6.82-7.83,3.71-11,12.83-38.04,13.65-40.15.39-.88.89-1.29,1.48-1.29.54,0,1.17.35,1.87,1.02.48.4.88.81,1.23,1.32.55.68.8,1.36.56,2.16-1.22,4.18-7.58,22.49-8.24,24.52,1.27-.85,3.12-2.89,4.32-3.72.57-.41,1.22-.61,1.88-.61.86,0,1.74.35,2.47,1.05.9.88,1.66,1.8,1.89,3.01.05.21.04.44,0,.59-.21,1.77-3.35,14.1-3.24,14.22.42-.33,1.96-1.74,3.73-3.36-.04-.38.02-.81.2-1.3l8.54-24.52c-4.38,1.21-5.28,1.14-7.81,1.72-.07.02-.15.03-.23.03-.37,0-.77-.18-1.1-.28-.65-.21-1.44-.37-1.84-.79-.49-.47-.95-1.09-1.18-1.7-.07-.28.38-.84.73-.93,1.5-.54,10.54-3.25,13.43-3.84,2.55-7.13,5.18-13.91,5.23-14,.22-.28.54-.72.77-.72M118.4,106.21c4.22-3.54,6.8-8.23,9.1-13.14-.09-.05-.26-.16-.37-.28-.73.63-1.65,1.09-2.36,1.8-1.4,1.48-2.96,2.92-4.1,4.56-1.04,1.46-1.79,3.14-2.48,4.8-.29.6-.08,1.43-.19,2.13.16.03.25.09.4.12M113.22,107.08s.03-.04.04-.06c0,0,0,0,0,0,0,0-.02.02-.04.06M285.03,58.85s0,0,.01,0c1.05.03,2.04.14,3.01.41,1.42.3,1.72,1.49.9,2.89-.38.84-2.26,5.94-2.61,7.15,0,0-.36.91-.75,2.28l4.55-1.4,1.43-.52c.2-.05.43-.11.64-.11.08,0,.16.01.24.03,1.23.43,2.5.77,3.63,1.37.28.23.71,1.01.67,1.46-.08.54-.36,1.21-.76,1.39-1.9.71-2.35.68-12.37,3.64-1.43,4.24-3.09,8.76-3.71,10.4-.92,2.47-4.05,10.79-4.36,11.91,0,0,0,0,0,0,.13,0,9.73-10.7,10.91-11.89-.44,1.45-11.29,16.16-12.26,17.3l-.46.79c-.16.47-2.09,1.53-2.93,1.53-.04,0-.07,0-.1,0-.54-.08-.93-.43-1.39-.76-.91-.66-1.29-1.53-.81-2.84l1.37-3.94c-2.88,4.52-8.58,12.44-12.01,12.44-.8,0-1.48-.44-1.97-1.46-.14-.26-.18-.7-.09-.94.84-2.23,1.66-4.52,2.5-6.74.53-1.4,1.85-4.94,1.95-5.41-1.79.54-3.87,1.45-6,3.85-1.12,1.41-2.93,8.79-3.97,10.25-.72.94-1.5,1.5-2.44,1.5-.37,0-.76-.09-1.18-.27-.1-.04-.09-.06-.05-.08-.28-.09-2.57-.85-2.94-2.57,1.9-4.14,5.3-16.32,6.24-19.02.29-.88.76-1.31,1.57-1.31.01,0,.02,0,.03,0,1.22.13,2.5.17,3.67.39.84.08,1.27,1.16.91,2.07-.6,1.72-1.18,3.5-1.58,5.39.85-1.04,1.68-2.14,2.66-3.22.99-1.07,2.04-2.17,3.21-3.13.52-.41,1.09-.53,1.68-.53.66,0,1.35.14,2.02.17.39.05,2.44,1.08,2.6,2.01.61,4.38-1.1,8.69-2.95,13.03,1.87-1.4,4.82-5.22,6.54-7.54l6.78-19.48c-4.37,1.2-5.28,1.14-7.81,1.72-.07.02-.15.03-.23.03-.37,0-.77-.18-1.1-.28-.65-.2-1.43-.37-1.84-.79-.49-.47-.95-1.09-1.18-1.7-.07-.28.38-.84.73-.93,1.5-.54,10.54-3.25,13.43-3.84,2.55-7.13,5.18-13.91,5.23-14,.22-.28.54-.72.77-.72M325.03,71.36c1.05,0,2.04.38,2.96,1.16-.26.44-.5.95-.79,1.25-1.44,1.34-2.18,2.79-2.78,4.51-.96,2.33-3.07,7.12-4.07,9.31-.15.26-.36.61-.17.79,0,0,.01,0,.03,0,.57,0,7.27-5.43,10.25-8.31,0,0,.59,0,1.27-.55,0,0-11.62,12.89-13.3,14.74-1,1-2.22,1.76-3.55,1.81-.03,0-.06,0-.09,0-1.36,0-2.48-1.38-2.22-2.9.46-3.09,1.79-6.04,3.19-8.93.55-1.33,1.54-4.12,2.14-5.54-1.01.11-2.34.46-2.9,1.72-1.08,3.03-4.26,10.84-5.74,13.75-.24.51-.48,1.02-.72,1.53-1.83,3.3-6.08,3.51-6.08,3.51-.07.02-.21.05-.33.16.51-1.17.96-2.33,1.49-3.44.3-.88.76-2.1,1.28-3.49-4.11,2.93-11.21,7.81-12,8.34-1.25.92-2.78,1.31-4.39,1.43-.08,0-.17,0-.25,0-1.82,0-3.43-.53-4.79-1.67-.3-.29-.57-.75-.9-1.18-1.47-4.23,5.55-13.04,7.39-15.45,1.12-1.41,4.99-4.56,8.87-5.12.08,0,.15-.01.22-.01,1.26,0,1.61,1.23,2.38,2.02.19.19.47.26.84.26.21,0,.44-.02.7-.06.81.24,1.67.69,1.95,1.8-.19.12-.26.44-.27.67-.67,2.03-.56,2.15-1.57,3.98-1.67,2.44-11.74,4.37-11.74,4.37l-.07.02c-1.31,2.12-2.78,5.63-2.81,6.68.1.05.24.07.41.07,2.54,0,11.89-5.27,16.55-7.44,1.42-3.68,3.18-8.05,4.05-10.34-1.29-.11-2.48-.4-3.3-1.53-.3-.29-.56-.75-.46-1.22,0-.3.52-.88.8-.95,5.42-1.18,10.75-2.71,16.08-5.12.85-.41,1.67-.62,2.46-.62M292,90.66c.87-.08,2.02-.52,3.29-1.07,2.02-2.83,3-4.79,2.85-5.94-1.84,1.22-4.28,4.16-6.14,7.02M204.7,73.96c.42,1.84,1.08,2.53,2.17,2.53.37,0,.78-.08,1.25-.22,2.35-.68,4.87-1.03,7.25-1.58.76-.15,1.51-.23,2.24-.23,1.38,0,2.71.32,3.95,1.16,1.07.69,1.95,1.8,2.89,2.82.32.36.39.94.59,1.41,0,.3.06.51.11.72-.16.26-.29.6-.31.82.43,1.97-.51,3.78-.93,5.6-.17.79-.88,1.49-1.36,2.21-.5.65-.93,1.28-1.45,1.86-.78,1.02-1.45,2.16-2.39,2.85-1.2.83-1.71,2.3-2.63,3.36-1.06,1.09-2.11,2.18-3.21,3.13-1.49,1.13-3,2.19-4.6,3.2-1.48.9-3.06,1.68-4.56,2.52-.14.04-.37.02-.49.13-1.33,1.46-3.1,1.25-4.65,1.87-.8.36-1.36.8-1.73,1.64-1.12,2.3-19.2,32.18-20.14,34.58-.67,1.73-1.95,3.11-2.23,5.19-.12.7-.84,1.33-1.33,2.05-.1.18-.19.42-.29.6q-.07.02-.14.04s-.04,0-.06,0c-.27,0-.48-.01-.69-.03-.47-.1-.78-.99-.54-1.5.46-1.09.94-2.1,1.34-3.17.95-2.92,1.84-5.83,2.88-8.7.96-2.63,2.09-5.15,3.15-7.66,1.32-3.24,2.64-6.48,4.03-9.74.91-2.24,1.83-4.42,2.76-6.59.57-1.26,1.08-2.44,1.67-3.63.93-1.88,1.94-3.7,2.85-5.65.7-1.59,1.23-3.29,1.93-4.89.81-1.77,1.63-3.47,2.46-5.17.62-1.35,1.17-2.68,1.7-4.08.36-.91.72-1.82,1.16-2.98-1.42,1.11-2.64,2.17-3.96,3.11l-8.23,6.44c-.43.34-.87.67-1.34.87-.71.41-1.46.68-2.09,1.13-.42.26-.79.37-1.13.37-.51,0-.96-.24-1.45-.59-.18-.1-.42-.19-.67-.27.15-.26.31-.53.54-.81,1.84-1.81,3.67-3.63,5.51-5.44-.02,0-.05,0-.06,0-1.01,0,4.73-4.75,8.85-8.3,2.53-1.99,5.33-3.54,7.99-5.34.36-.32.74-.86.98-1.37.5-.95.82-2,1.32-2.94.17-.49.6-.83,1.07-1.32M200.01,103.88c1.46-.68,3.03-1.23,4.49-2.2,1.65-1.1,3.19-2.61,4.79-3.92.8-.65,1.67-1.32,2.45-2.05,1.46-1.27,2.25-3.11,3.05-4.88.52-1.17.96-2.33,1.39-3.56.24-.8.34-1.57.49-2.43.28-1.78.48-3.62.67-5.45.01-.22-.36-.66-.58-.66-.01,0-.02,0-.03,0-1.76.38-3.52.76-5.23,1.35-1.5.54-2.89,1.49-4.4,1.96-1.19.31-1.3,1.3-1.62,2.35-.08.25-.01.52-.01.82.02.66.13,1.38,0,2.01-.34,1.28-.85,2.45-1.19,3.73-.36.91-.65,1.8-.92,2.77-.1.47-.03,1.05-.21,1.47-1.13,2.82-2.19,5.62-3.32,8.44.09.05.11.12.21.24M111.57,91.32c.44,0,1.05.05,1.41.23.33.14.42.78.67,1.16.37.87-.19,2.13-1.06,2.51-1.08.43-2.17,1.08-3.28,1.14-.02,0-.03,0-.05,0-.98,0-3.13-.76-3.7-1.86-.12-.19.1-.77.29-.89,1.53-.69,2.99-1.37,4.54-1.99.19-.12.47-.2.68-.25,0-.03.2-.05.49-.05M241.98,91.4c.44,0,1.05.05,1.41.23.33.14.43.78.67,1.16.37.87-.19,2.13-1.06,2.51-1.08.43-2.17,1.08-3.27,1.14-.02,0-.03,0-.05,0-.98,0-3.13-.76-3.71-1.86-.12-.19.1-.77.29-.89,1.53-.69,2.99-1.37,4.54-1.99.19-.12.47-.2.68-.25,0-.03.2-.05.49-.05M238.61,97.23c.56,0,1.13.2,1.62.57.63.43,1.32.78,2.11,1.24-.75,2.57-1.43,5.13-2.24,7.72-.22.87-1.29,4.5-2.56,7.06.94-.69,1.82-1.59,2.64-2.47.69-.77,1.37-1.62,2.13-2.41.28-.37.55-.74.83-1.11.21-.26.37-.45.51-.68-.28.48-2.15,4.14-2.75,4.98-.55.74-1.04,1.46-1.71,2-.97.85-2.08,1.73-3.37,2.21-.33.21-.7.3-1.09.3-.96,0-1.97-.57-2.36-1.27-.26-.54-.26-1.77-.16-2.9-1.56,1.5-3.17,2.76-4.17,2.76,0,0-.01,0-.02,0,0,0-.01,0-.02,0-1.77,0-2.36-1.99-2.5-3.14-1.78,2.62-3.54,4.71-4.6,5.8-.97.85-1.73,1.93-2.81,2.66-1.25.92-2.77,1.38-4.39,1.43-.18.01-.35.02-.52.02-1.69,0-3.21-.54-4.52-1.69-.3-.29-.57-.75-.9-1.18-1.45-4.16,5.55-13.04,7.39-15.45,1.14-1.34,5.01-4.49,8.87-5.12.08,0,.15-.01.22-.01,1.26,0,1.61,1.23,2.38,2.02.11.12.19.17.28.23.54.38,1.78,1.4,2.05,3.34.09.35.08.87.04,1.33-.05.09-.03.16-.08.25-.08,2.55-.17,7.41-.08,7.75,0,.01.01.02.03.02.24,0,1.91-1.45,3.63-3.01.02-.08.04-.15.05-.2.68-1.96,3-8.81,3.46-10.19.26-.74.49-1.54,1.01-2.12.42-.5,1-.73,1.61-.73M213.26,116.93c.25,0,.54-.04.87-.11,2.54-.81,9.41-11.06,9.18-13.38,0,0,0,0-.02,0-.24,0-2.76.04-4.49,1.84-1.65,1.76-9.67,11.66-5.55,11.66M243.67,107.1s0,0,0,0c-.01.02-.03.04-.04.06.02-.04.04-.06.04-.06M173.79,51.81c-1.17,0-1.85.87-2.26,1.39l-.07.09c-.06.07-.11.15-.16.23-.24.41-3.01,7.71-5.02,13.31-3.24.8-9.4,2.63-11.79,3.4.76-2.29,1.37-4.18,1.68-5.22.4-1.36.11-2.68-.88-3.93-.42-.58-.9-1.1-1.5-1.61-1.1-1.03-2.15-1.53-3.21-1.53-.82,0-2.33.32-3.3,2.48-.01.03-.03.06-.04.1-.65,1.67-6.3,18.35-10.56,31-.01-1.07-.7-1.94-2.05-2.6-.06-.03-.12-.06-.18-.09-.35-.27-.78-.42-1.23-.42-.04,0-.08,0-.12,0-.17,0-.33.03-.47.06,0,0,0,0-.01-.01-1.01-.71-2.89-2.04-5.53-2.04-1.2,0-2.41.28-3.61.83-.09.04-.19.09-.27.15-1.47.97-3.37,2.27-5.06,3.7-.87.76-1.65,1.6-2.38,2.44.03-.56-.06-1.12-.27-1.62-.04-.09-.09-.18-.14-.26-.03-.06-.05-.12-.07-.18-.19-.47-.53-1.33-1.47-1.75-.72-.34-1.61-.41-2.24-.41-.29,0-.74,0-1.18.17-.25.07-.56.17-.87.33-1.34.54-2.58,1.11-3.89,1.7l-.6.27c-.09.04-.18.09-.27.15-1,.65-1.61,2.34-.95,3.54.27.5.66.93,1.11,1.29-.62.77-.92,1.65-1.16,2.37l-.08.22c-.19.59-.69,2.06-1.26,3.73-.02,0-.03.02-.05.03-.74.48-1.59,1.08-2.45,1.73-.04.03-.07.06-.11.09-2.81,2.44-5.99,5.21-9.11,8.02-.51.44-.99.92-1.47,1.39-.44.44-.86.85-1.29,1.23-.49.4-1.03.77-1.6,1.16-.21.14-.42.29-.63.44.26-.45.52-.91.76-1.39.56-1.02,1.05-2.11,1.52-3.16.22-.5.45-1,.68-1.49.66-1.32,1.31-2.71,1.94-4.21.74-1.65,1.48-3.34,2.23-5.03.73-1.67,1.47-3.34,2.22-5.01.29-.64.63-1.26,1-1.92.28-.51.57-1.03.84-1.57.28-.49.41-.98.52-1.38.02-.09.05-.17.07-.26.29-.55.57-1.1.86-1.64.97-1.85,1.97-3.77,2.9-5.73,0-.02.02-.04.03-.06.27-.63.59-1.25.93-1.91.81-1.57,1.74-3.36,2.04-5.52.08-.48.33-1.03.62-1.68.21-.46.42-.94.61-1.48.09-.27.13-.55.1-.83-.02-.23-.04-.47-.07-.72-.02-.23-.05-.45-.06-.66-.02-.26-.1-.52-.22-.75-.15-.29-.29-.61-.45-.96-.24-.54-.5-1.14-.85-1.73-.41-.78-1.11-1.16-1.49-1.37-.06-.03-.12-.06-.18-.1-.06-.05-.11-.08-.18-.12-.01,0-.05-.04-.09-.07-.15-.11-.31-.23-.46-.31-.31-.18-.66-.28-1.01-.28-.16,0-.33.02-.49.06l-.37.09c-.51.13-.95.46-1.22.92l-.08.13c-.7,1.18-1.41,2.4-2.11,3.69-.61,1.08-1.21,2.21-1.8,3.31-.57,1.07-1.17,2.18-1.77,3.25-.02.04-.05.09-.07.13l-.03.07c-.64,1.38-1.31,2.8-2.02,4.21-.01.02-.02.04-.03.06-.38.81-.81,1.62-1.27,2.47-.32.58-.63,1.17-.93,1.77-.01.02-.02.04-.03.07-.29.63-.57,1.26-.85,1.9-.55,1.25-1.08,2.44-1.68,3.59-.01.02-.03.05-.04.07-.3.63-.66,1.25-1.04,1.9-.47.81-.96,1.65-1.38,2.59-.83,1.69-1.58,3.42-2.31,5.1-.36.84-.73,1.67-1.1,2.5l-.02.03c-1.01,2.21-2.06,4.49-3.17,6.66-.01.02-.02.04-.03.06-.89,1.9-1.81,3.76-2.74,5.55-.01.02-.02.05-.04.07-.16.34-.37.7-.6,1.08-.36.61-.78,1.31-1.07,2.1-.64,1.88-1.53,3.53-2.47,5.28-.41.76-.83,1.55-1.23,2.35-.97,2.01-2.09,3.85-3.43,5.64-.45.55-.87,1.45-.66,2.36-.01.02-.03.03-.04.05-.13.16-.26.33-.38.5-.32.47-.43,1.06-.29,1.61l.03.13.02.08c.09.37.28.7.55.95.14.39.33.69.47.93.05.09.11.18.16.29.74,1.65,1.88,2.39,2.79,2.98l.11.07c.46.33.93.5,1.28.63.1.04.2.07.3.12.26.12.54.18.82.18.17,0,.34-.02.5-.06l1.04-.27c.35-.09.66-.27.91-.52l.06-.06c.96-.96,1.95-1.95,2.99-2.93.31-.31.59-.59.86-.88.42-.44.86-.89,1.3-1.3.33-.3.69-.59,1.07-.89.57-.45,1.15-.92,1.74-1.52.02-.02.04-.04.06-.07.36-.4.68-.81.98-1.21.46-.59.89-1.15,1.39-1.56.82-.66,1.57-1.38,2.3-2.08.54-.52,1.05-1,1.59-1.47.02-.01.03-.03.04-.04.75-.69,1.5-1.33,2.3-2,.8-.67,1.62-1.37,2.44-2.12.87-.79,1.68-1.65,2.46-2.47.28-.3.57-.6.85-.9.43-.43,3-2.9,4.98-4.77,0,0,0,0,0,.01.76,1.35,2.45,2.29,4.1,2.29.71,0,1.38-.17,1.96-.5,1.49-.6,2.74-1.58,3.78-2.48.76-.62,1.29-1.34,1.8-2.03l.23-.31c.3-.42.74-1.18,1.26-2.13,1.13.74,2.34,1.11,3.26,1.33.37.09.8.13,1.32.13.12,0,.23,0,.35,0-.86,1.97-1.94,4.5-2.92,6.86-2.6,6.13-5.98,7.49-6.12,7.54-.77.27-1.29.98-1.33,1.8-.04.82.45,1.57,1.19,1.91,1.67.75,3.27,1.13,4.75,1.13,5.1,0,7.9-4.34,9.75-7.2.02-.04.04-.07.07-.11,1.2-2.15,1.93-4.14,2.2-4.94.2-.37.42-.79.64-1.29,1.79-3.2,3.97-6.36,6.47-9.4.8.54,1.9.95,2.48.95.06,0,.12,0,.18,0,3.72-.18,6.03-1.42,6.87-3.69.16-.41.31-.87.5-1.45.69-2.09,1.87-5.68,4.09-8.47-.06.14-.11.29-.17.43-.11.26-.23.51-.34.77-.73,1.63-1.56,3.48-1.46,5.75.03,2.54.88,3.82,3.25,4.88,1.12.5,2.23.76,3.3.76,1.48,0,2.88-.48,4.16-1.42.02-.02.05-.04.07-.06.23-.18.46-.37,2.53-3.08.21.08.45.14.7.18.16.02.28.03.4.03,1.19,0,3.82-1.11,4.65-2.52h0s.41-.7.41-.7c1.37-1.8,11.88-15.77,12.5-17.82.27-.88-.1-1.83-.89-2.3-.32-.19-.67-.28-1.02-.28-.52,0-1.04.2-1.43.6-.48.49-2.14,2.31-4.17,4.55.21-.55.39-1.04.54-1.43l.39-1.03c.68-1.81,2.1-5.69,3.39-9.48,4.09-1.2,6.46-1.87,7.92-2.28,1.88-.53,2.51-.71,3.6-1.12.04-.01.07-.03.11-.04,1.47-.66,1.84-2.4,1.92-2.91,0-.05.01-.11.02-.16.08-1.18-.67-2.56-1.42-3.16-.1-.08-.2-.14-.31-.2-1-.53-2.03-.87-3.02-1.2-.3-.1-.59-.19-.89-.3-.27-.1-.58-.15-.89-.15-.46,0-.87.11-1.14.17-.06.02-.12.03-.18.06l-1.38.5-.79.24c.64-1.83,1.72-4.72,2.04-5.47.73-1.3.86-2.61.38-3.72-.45-1.02-1.36-1.73-2.58-2.01-1.02-.28-2.15-.44-3.43-.47-.03,0-.05,0-.07,0h0ZM150.12,83.07c.78-2.27,1.68-4.9,2.54-7.46.22.29.47.57.74.83.69.69,1.59.96,2.32,1.17.11.03.22.06.32.1.09.03.16.05.22.07.37.13.88.3,1.48.3.24,0,.47-.03.69-.08.83-.19,1.49-.31,2.18-.43.61-.11,1.25-.23,2.07-.4l-4.09,11.74c0-.2-.03-.42-.08-.65-.36-1.76-1.44-3-2.44-3.99-1.1-1.05-2.47-1.62-3.87-1.62-.72,0-1.42.15-2.08.43h0ZM112.94,97.24s.1-.04.15-.06c-.02.04-.05.07-.07.11-.03-.02-.05-.03-.08-.05h0ZM285.03,56.85c-1.17,0-1.86.87-2.26,1.39l-.07.09c-.06.07-.11.15-.16.23-.24.41-3.01,7.71-5.03,13.31-3.68.9-11.09,3.14-12.53,3.64-1.01.31-1.58,1.17-1.74,1.44-.46.79-.42,1.47-.31,1.9.02.07.04.14.07.21.32.84.92,1.72,1.65,2.42.7.69,1.6.96,2.32,1.17.11.03.21.06.31.09.1.03.16.05.23.07.37.13.87.3,1.48.3.24,0,.47-.03.69-.08.84-.19,1.49-.31,2.19-.43.61-.11,1.25-.23,2.06-.4l-5.26,15.12c.17-1.4.18-2.81-.02-4.24,0-.03,0-.05-.01-.08-.39-2.18-3.55-3.54-4.32-3.64-.06,0-.12-.01-.19-.02-.23,0-.49-.04-.77-.07-.4-.05-.84-.1-1.32-.1-1.15,0-2.1.31-2.92.96-.36.3-.7.6-1.03.91-.09-.34-.22-.67-.41-.97-.5-.82-1.3-1.35-2.21-1.47-.86-.16-1.73-.23-2.57-.29-.4-.03-.79-.06-1.18-.11-.06,0-.13-.01-.19-.01,0,0-.05,0-.05,0-.97,0-2.71.35-3.47,2.69-.28.82-.79,2.49-1.43,4.62-.85,2.82-1.97,6.52-3,9.59-.24.01-.61.08-.98.32.32-1.1.63-2.18.93-3.25.24-.86.48-1.71.73-2.57.25-.88-.12-1.81-.9-2.28.13-.06.26-.11.39-.16.02,0,.04-.01.05-.02.88-.38,1.63-1.15,2.04-2.11.44-1.01.46-2.11.07-3.02-.04-.09-.08-.18-.14-.26-.03-.06-.05-.12-.07-.18-.19-.47-.53-1.33-1.47-1.76-.72-.34-1.61-.41-2.24-.41-.29,0-.74,0-1.18.17-.24.07-.56.17-.87.33-1.35.55-2.6,1.12-3.93,1.72l-.56.26c-.09.04-.18.09-.26.14-1,.65-1.62,2.34-.95,3.54.27.5.66.93,1.11,1.29-.62.78-.92,1.65-1.16,2.37l-.08.22c-.42,1.25-2.45,7.26-3.29,9.69.02-1.02.04-2.08.07-3.04.05-.15.08-.31.09-.47.05-.79.03-1.36-.07-1.84-.4-2.53-1.97-3.97-2.87-4.6-.01,0-.02-.01-.03-.02-.1-.12-.23-.29-.36-.47-.52-.74-1.48-2.11-3.42-2.11-.14,0-.28,0-.43.02-.04,0-.08,0-.11.01-2.91.47-5.71,2.1-7.69,3.62.51-.51,1.01-1.02,1.5-1.53.03-.03.07-.08.1-.1.45-.52.8-1.08,1.11-1.57.4-.63.74-1.17,1.14-1.45.01-.01.03-.02.04-.03.97-.71,1.66-1.68,2.27-2.53.16-.22.32-.44.48-.66.4-.45.74-.91,1.07-1.35.14-.19.28-.37.42-.56.03-.03.05-.07.08-.1.11-.17.25-.34.38-.51.48-.62,1.07-1.39,1.28-2.4.09-.39.23-.83.37-1.3.42-1.35.88-2.85.66-4.57.25-.45.32-.97.19-1.47-.04-.17-.05-.19-.05-.23,0-.26-.05-.52-.15-.76-.04-.1-.07-.21-.1-.31-.14-.46-.33-1.08-.82-1.64-.2-.22-.36-.41-.53-.59-.82-.92-1.67-1.88-2.76-2.58-1.48-1.01-3.14-1.5-5.05-1.5-.81,0-1.67.09-2.62.27-.02,0-.05,0-.07.01-.86.2-1.73.36-2.64.54-1.55.3-3.16.61-4.72,1.07-.3.09-.48.12-.6.13-.07-.14-.19-.42-.32-.97-.16-.72-.71-1.29-1.42-1.48-.17-.05-.35-.07-.53-.07-.54,0-1.07.22-1.45.62-.09.1-.18.19-.27.27-.4.39-.88.88-1.18,1.6-.27.52-.48,1.04-.69,1.54-.19.47-.37.91-.58,1.3-.01.02-.02.05-.04.07-.13.27-.32.53-.44.66-.89.6-1.82,1.19-2.72,1.76-1.74,1.1-3.55,2.24-5.25,3.57-.02.02-.05.04-.07.06-.62.53-1.27,1.09-1.93,1.65-5.2,4.44-7.2,6.15-7.66,7.43l-2.15,2.12-2.66,2.63c-.05.05-.11.11-.15.17-.32.4-.54.78-.7,1.05-.3.52-.36,1.14-.15,1.7.21.56.66,1,1.22,1.2.08.03.21.07.29.1.58.4,1.42.88,2.49.88.74,0,1.47-.23,2.19-.67.04-.03.09-.06.13-.09.24-.18.57-.34.95-.52.26-.13.55-.27.85-.43.66-.3,1.19-.71,1.67-1.08l6.3-4.93s0,.02-.01.03c-.8,1.64-1.64,3.37-2.46,5.17-.38.87-.71,1.74-1.02,2.57-.31.82-.6,1.59-.92,2.34-.51,1.09-1.09,2.2-1.65,3.28-.39.76-.79,1.52-1.17,2.28-.51,1.03-.95,2.02-1.42,3.07l-.28.62c-.93,2.17-1.87,4.38-2.79,6.66-1.4,3.29-2.73,6.57-4.02,9.74-.22.52-.46,1.08-.7,1.63-.84,1.96-1.72,4-2.48,6.09-.77,2.12-1.46,4.29-2.13,6.38-.25.78-.5,1.57-.76,2.35-.25.67-.54,1.34-.85,2.05-.14.32-.28.65-.42.98-.37.82-.33,1.87.1,2.75.39.79,1.06,1.34,1.84,1.51.09.02.18.03.28.04.25.02.51.03.83.03h.08c.16,0,.33-.02.48-.06l.14-.04c.51-.13.95-.46,1.22-.92.09-.15.17-.32.25-.5.01-.03.02-.05.03-.08.1-.14.22-.29.35-.45.48-.59,1.07-1.32,1.23-2.31,0-.02,0-.04,0-.06.13-.94.57-1.73,1.08-2.65.36-.64.73-1.31,1.03-2.09.53-1.31,7.58-13.19,12.24-21.04,4.55-7.66,7.36-12.4,7.83-13.38,0-.02.02-.04.03-.06.11-.26.22-.4.69-.61.35-.14.78-.23,1.24-.32,1.04-.22,2.43-.52,3.65-1.59.16-.04.31-.1.45-.18.52-.29,1.06-.58,1.59-.86,1-.53,2.03-1.08,3.03-1.69,1.46-.92,2.9-1.91,4.39-3.03-.03.04-.06.07-.09.11-.02.03-.05.06-.07.09l-.27.35c-4.26,5.57-8.96,12.54-7.42,16.97.07.2.17.39.3.56.1.13.2.27.29.4.22.32.47.67.8.99.03.03.06.05.08.08,1.65,1.45,3.62,2.18,5.84,2.18.2,0,.41,0,.61-.02,2.04-.07,3.92-.69,5.45-1.79.82-.56,1.45-1.23,2.02-1.83.33-.35.64-.68.96-.96.04-.04.08-.08.12-.12.7-.73,1.69-1.86,2.77-3.26.76.78,1.75,1.21,2.89,1.21.8,0,1.64-.28,2.62-.89,0,0,0,0,0,.01.76,1.35,2.45,2.29,4.1,2.29.71,0,1.38-.17,1.96-.5,1.49-.6,2.75-1.59,3.78-2.48.76-.62,1.28-1.33,1.79-2.02l.23-.32c.08-.11.16-.23.25-.38.88,1.01,2.07,1.6,2.78,1.87.12.08.25.14.38.2.65.28,1.3.42,1.93.42,1.5,0,2.86-.77,4.03-2.28.02-.02.03-.04.05-.06.64-.9,1.23-2.64,2.13-5.4.51-1.56,1.36-4.15,1.76-4.75.26-.29.51-.55.76-.79-.05.13-.09.25-.14.37-.42,1.12-.84,2.26-1.26,3.39-.41,1.12-.83,2.25-1.24,3.36,0,.02-.01.03-.02.05-.26.76-.18,1.75.2,2.49,1.08,2.23,2.81,2.56,3.76,2.56,2.81,0,6.16-3.14,9.24-7.03.28.36.62.69,1.04.99l.19.14c.47.35,1.12.83,2.06.97.16.02.28.03.4.03,1.19,0,3.82-1.11,4.65-2.52h0s.41-.7.41-.7c.55-.72,2.54-3.36,4.78-6.41.02.05.03.1.05.15.07.2.17.4.31.57.1.13.2.27.29.4.22.32.47.67.79.99.04.04.08.07.12.11,1.7,1.42,3.74,2.14,6.08,2.14.1,0,.2,0,.3,0,.03,0,.06,0,.09,0,2.19-.16,3.96-.75,5.39-1.79.54-.37,3.42-2.34,6.52-4.49-.09.21-.18.42-.27.64-.38.86-.11,1.86.65,2.42.35.26.77.39,1.18.39.3,0,.61-.07.88-.2,1.35-.16,5.32-.94,7.28-4.49.02-.04.04-.08.06-.11l.55-1.15c.18.41.41.8.71,1.15.81.97,1.98,1.52,3.19,1.52.06,0,.12,0,.18,0,1.67-.06,3.36-.89,4.87-2.39.02-.02.04-.05.07-.07,1.66-1.83,13.19-14.62,13.3-14.75.7-.78.68-1.96-.03-2.71-.39-.41-.92-.62-1.45-.62-.44,0-.89.15-1.26.44-.09.07-.16.1-.19.12-.46.04-.89.24-1.22.56-1.1,1.06-2.66,2.43-4.21,3.73.55-1.27,1.06-2.46,1.42-3.32.01-.03.03-.07.04-.1.5-1.43,1.07-2.61,2.25-3.7.02-.02.04-.04.07-.06.41-.42.68-.9.92-1.33.06-.1.11-.2.17-.3.5-.84.31-1.91-.43-2.54-1.28-1.08-2.71-1.63-4.25-1.63h0c-1.08,0-2.2.28-3.33.82-4.52,2.05-9.5,3.64-15.63,4.97-.03,0-.05.01-.08.02-.98.25-2.11,1.4-2.27,2.59-.08.47-.04.95.1,1.41-.09-.03-.19-.06-.28-.09-.18-.05-.38-.08-.57-.08-.1,0-.2,0-.31.02-.03,0-.06,0-.09.01-.03-.05-.07-.09-.1-.14-.52-.74-1.48-2.11-3.42-2.11-.14,0-.28,0-.43.02-.03,0-.05,0-.08,0-4.62.66-8.9,4.29-10.14,5.85l-.36.47c-.7.92-1.41,1.86-2.08,2.8-.34.09-.67.27-.93.54-.48.49-2.14,2.31-4.17,4.55.23-.62.43-1.16.59-1.56l.34-.9c.68-1.83,2.11-5.73,3.39-9.48,4.08-1.2,6.45-1.87,7.91-2.28,1.88-.53,2.52-.71,3.6-1.12.04-.01.07-.03.11-.04,1.48-.65,1.85-2.4,1.92-2.91,0-.05.01-.11.02-.16.08-1.18-.67-2.56-1.42-3.16-.1-.08-.2-.14-.3-.2-1-.54-2.03-.87-3.03-1.2-.3-.1-.59-.19-.89-.3-.28-.1-.58-.15-.89-.15-.46,0-.87.11-1.14.18-.06.02-.12.03-.18.06l-1.38.5-.79.24c.64-1.83,1.72-4.72,2.03-5.47.73-1.3.86-2.62.38-3.72-.45-1.02-1.36-1.73-2.58-2.01-1.03-.28-2.15-.44-3.44-.47-.02,0-.05,0-.07,0h0ZM207.68,83.96c.97-.3,1.84-.74,2.68-1.16.63-.32,1.23-.62,1.8-.82.96-.33,1.95-.59,2.97-.83-.13,1.16-.27,2.3-.45,3.4l-.09.53c-.1.59-.18,1.11-.33,1.61-.43,1.24-.85,2.31-1.31,3.36l-.11.25c-.7,1.55-1.37,3.01-2.42,3.92-.02.01-.03.03-.05.04-.54.5-1.16,1-1.75,1.48-.2.16-.4.33-.6.49-.56.45-1.1.93-1.63,1.39-1.03.9-2,1.75-3,2.4,0,0-.02.01-.03.02.53-1.35,1.05-2.71,1.6-4.07.24-.57.28-1.12.3-1.52,0-.09.01-.2.02-.27.26-.93.53-1.72.83-2.48.03-.07.05-.15.07-.22.15-.57.35-1.13.55-1.72.22-.64.45-1.3.64-2.01,0-.03.02-.06.02-.09.16-.74.11-1.46.07-2.03-.01-.15-.02-.3-.03-.44,0-.13-.01-.25-.02-.38.03-.09.05-.18.08-.27.05-.19.12-.43.18-.58h0ZM303.11,90.02c.3-.19.57-.39.81-.6-.03.08-.06.17-.1.25-.23.11-.47.23-.72.35h0ZM292.54,93.6c2.1-.43,5.29-1.19,7.94-2.27-.27.14-.54.27-.81.41-2.21,1.12-5.7,2.9-8.18,3.95.31-.69.67-1.42,1.04-2.1h0ZM215.21,113.38c1.09-1.8,2.77-4.07,4.12-5.67-1.24,2-2.83,4.22-4.12,5.67h0Z"/>
    </g>
    <g class="cls-9">
      <path class="cls-2" d="M174.07,54.82c.94.04,1.73.16,2.46.36h.03s.03.02.03.02c.16.03.45.12.53.3.07.17.04.56-.28,1.11l-.03.05-.02.05c-.39.87-2.25,5.92-2.65,7.23-.08.2-.41,1.08-.76,2.33l-.51,1.77,1.76-.54,4.55-1.4h.02s.02-.02.02-.02l1.38-.5c.1-.03.23-.06.31-.07.29.1.59.2.88.29.86.28,1.68.55,2.41.92.11.14.26.44.28.57-.05.26-.15.48-.22.57-.9.33-1.48.5-3.25,1-1.58.45-4.23,1.19-8.95,2.59l-.5.15-.17.49c-1.37,4.04-2.97,8.42-3.7,10.37l-.38,1.01c-1.93,5.17-3.76,10.07-4.01,10.99l-.34,1.26h1.31c.31,0,.44,0,1.8-1.45-1.87,2.55-3.44,4.65-3.92,5.21l-.06.07-.04.07-.47.79-.03.05c-.33.33-1.61.99-1.99,1-.2-.03-.41-.18-.73-.42l-.23-.17-.08-.06-.47-.36-.05-.41c-.03-.23.02-.51.15-.86l8.54-24.52.63-1.8-1.84.51c-2.79.77-4.14,1.01-5.44,1.25-.73.13-1.42.26-2.34.47-.11,0-.34-.08-.51-.14-.11-.04-.21-.07-.29-.09-.12-.04-.25-.08-.38-.11-.36-.11-.9-.27-1.08-.45-.31-.29-.58-.64-.77-.98,1.49-.52,10.43-3.21,13.26-3.79l.55-.11.19-.53c2.39-6.69,4.8-12.92,5.16-13.82.05-.06.12-.15.18-.22M285.31,59.86c.94.04,1.73.16,2.46.37h.03s.03.02.03.02c.16.03.45.12.52.3.07.17.04.56-.28,1.11l-.03.05-.02.05c-.39.87-2.25,5.92-2.65,7.23-.08.2-.41,1.08-.77,2.33l-.51,1.77,1.76-.54,4.59-1.41,1.38-.5c.1-.03.23-.06.31-.07.29.1.58.2.88.29.86.28,1.68.55,2.41.92.11.14.26.44.28.56-.05.26-.15.48-.22.57-.9.34-1.48.5-3.25,1-1.58.45-4.23,1.19-8.94,2.58l-.5.15-.17.49c-1.35,4-2.96,8.4-3.7,10.37l-.34.9c-1.95,5.22-3.8,10.17-4.05,11.1l-.34,1.26h1.31c.31,0,.43,0,1.81-1.46-1.87,2.55-3.45,4.66-3.92,5.22l-.06.07-.04.07-.46.79-.03.05c-.32.32-1.58.97-2.02.99-.19-.04-.39-.19-.7-.41l-.22-.16c-.54-.38-.78-.78-.45-1.7l1.37-3.94,2.81-8.08h0s4.35-12.5,4.35-12.5l.63-1.8-1.84.51c-2.79.77-4.13,1.01-5.43,1.24-.73.13-1.43.26-2.34.47-.11,0-.34-.08-.51-.14-.11-.04-.21-.07-.29-.09-.12-.04-.24-.07-.37-.11-.36-.11-.9-.27-1.08-.45-.31-.29-.58-.64-.77-.98,1.49-.52,10.42-3.2,13.26-3.79l.55-.11.19-.53c2.39-6.7,4.8-12.92,5.16-13.82.05-.06.12-.15.18-.22M150.57,60.95c.07,0,.44.04,1.19.75l.02.02.02.02c.44.37.78.73,1.06,1.13l.02.03.02.03c.45.56.48.91.38,1.25-.87,2.99-4.44,13.39-6.57,19.6-.86,2.5-1.48,4.31-1.66,4.89l-.9,2.75,2.41-1.61c.73-.48,1.58-1.28,2.4-2.05.7-.65,1.42-1.32,1.94-1.69.39-.28.84-.42,1.3-.42.63,0,1.26.27,1.77.76.72.71,1.42,1.51,1.61,2.49v.05s.01.01.01.01c0,.02,0,.08,0,.14v.04s-.01.04-.01.04c-.11.92-1.15,5.24-1.98,8.7q-1.41,5.86-1.02,6.3l.63.71.74-.59c.28-.22.98-.84,2.14-1.9-1.54,2.01-1.96,2.49-2.07,2.6-.75.54-1.52.8-2.34.8-.65,0-1.34-.17-2.08-.5-1.31-.59-1.47-.82-1.48-2.25-.08-1.57.54-2.96,1.2-4.42.12-.28.25-.56.38-.87.61-1.56,1.17-3.09,1.76-4.7l.58-1.57.29-.79-.73-.42s-.1-.05-.17-.08l-.38-.45-.66.26c-6.56,2.59-9.04,10.12-10.23,13.74-.17.52-.32.97-.43,1.25l-.04.09c-.5,1.34-2.79,1.66-4.17,1.74-.15-.05-.43-.18-.65-.3,0-.14,0-.24.01-.31l.66-1.96.78-2.32h0s.07-.22.07-.22c3.82-11.32,12.76-37.83,13.62-40.08.19-.41.41-.68.55-.68M100.64,69.14c.13.08.26.15.37.22.09.05.22.12.29.17h0s.03.06.03.06c.27.44.48.93.71,1.45.14.31.28.64.44.95.02.17.03.34.05.51.02.15.03.31.05.46-.13.34-.28.68-.44,1.04-.34.77-.7,1.56-.85,2.49-.23,1.65-.96,3.06-1.73,4.55-.35.67-.71,1.37-1.01,2.06-.9,1.91-1.89,3.8-2.85,5.62-.31.6-.63,1.19-.94,1.8l-.03.06-.02.07c-.06.18-.12.37-.17.56-.08.28-.15.55-.26.73l-.02.03-.02.04c-.24.49-.51.98-.8,1.5-.38.69-.77,1.39-1.11,2.15-.75,1.68-1.49,3.35-2.23,5.03-.74,1.68-1.48,3.36-2.24,5.07-.61,1.44-1.22,2.77-1.89,4.1-.24.51-.47,1.03-.7,1.54-.45,1-.91,2.03-1.44,3-.53,1.01-1.11,1.98-1.68,2.93-.43.72-.87,1.45-1.3,2.23-.45.86-.88,1.72-1.31,2.57-.43.85-.86,1.71-1.31,2.57l-.03.06-.02.07c-.11.33-.2.73-.22,1.05v.17s.03.16.03.16c.12.46.49.68.65.78l.66.39.55-.54c.79-.77,1.57-1.57,2.36-2.37,1.14-1.16,2.31-2.35,3.48-3.45.72-.67,1.52-1.22,2.37-1.81.6-.42,1.23-.85,1.84-1.34.51-.45.99-.92,1.46-1.38.46-.45.89-.88,1.36-1.29,3.1-2.78,6.26-5.54,9.05-7.97.77-.58,1.52-1.11,2.18-1.54.01,0,.03,0,.06,0h.71s.23-.68.23-.68c.7-2.05,1.35-4,1.57-4.65l.08-.24c.21-.61.4-1.18.75-1.57.26-.31.6-.37.84-.37.35,0,.71.13,1.01.36l.02.02h.02c.45.32.92.58,1.41.86.03.02.06.03.09.05-.18.61-.35,1.22-.52,1.83-.47,1.67-.96,3.4-1.5,5.11v.03s-.02.03-.02.03c-.25,1-1.31,4.49-2.49,6.86l-.97,1.95c-.07.03-.14.06-.21.08l-.1.04-.09.06c-.15.09-.33.14-.54.14-.61,0-1.25-.38-1.47-.73-.1-.25-.18-1.16-.03-2.69l.3-2.94-2.02,2.15c-.18.19-.32.32-.47.44-.87.71-7.05,6.63-7.56,7.14-.29.3-.58.61-.88.92-.74.79-1.51,1.6-2.32,2.33-.76.71-1.56,1.38-2.33,2.03-.79.67-1.6,1.35-2.38,2.07-.59.52-1.15,1.05-1.69,1.57-.71.69-1.39,1.33-2.14,1.94-.75.62-1.31,1.34-1.84,2.04-.28.37-.55.72-.81,1-.46.47-.95.86-1.47,1.28-.4.32-.82.65-1.23,1.03-.51.47-.97.95-1.42,1.42-.26.27-.52.54-.77.79-1.01.96-1.98,1.92-2.91,2.85l-.46.12c-.05-.02-.11-.04-.16-.06-.23-.08-.44-.16-.57-.26l-.02-.02-.03-.02-.15-.1c-.79-.52-1.32-.86-1.72-1.75-.1-.2-.21-.38-.31-.56-.25-.41-.29-.51-.25-.75l.14-.8c.21-.43.34-.96.16-1.62h0s.03-.04.03-.04c1.47-1.97,2.7-3.99,3.75-6.16.38-.76.79-1.52,1.18-2.26.95-1.77,1.94-3.61,2.64-5.66.2-.54.51-1.06.83-1.6.25-.42.51-.86.72-1.29.96-1.83,1.9-3.73,2.79-5.64,1.13-2.22,2.19-4.53,3.22-6.76l.03-.07c.38-.84.74-1.69,1.11-2.53.72-1.66,1.47-3.38,2.29-5.05.36-.81.79-1.55,1.24-2.34.39-.68.8-1.38,1.13-2.09.65-1.23,1.22-2.52,1.77-3.77.27-.62.55-1.24.82-1.82.29-.57.6-1.14.9-1.7.46-.85.94-1.74,1.34-2.6.74-1.45,1.41-2.9,2.06-4.3v-.03c.62-1.08,1.21-2.19,1.79-3.27.58-1.08,1.18-2.2,1.79-3.29.56-1.04,1.15-2.05,1.73-3.03M325.03,72.36c.58,0,1.12.15,1.64.45-.06.1-.12.18-.16.22-1.72,1.6-2.5,3.37-3.03,4.89-.95,2.31-3,6.96-4.02,9.2-.21.36-.71,1.3.05,1.99l.07.07.09.05.26.14h.27c.42,0,1.49-.69,2.8-1.69-2.43,2.7-4.64,5.15-5.29,5.86-.67.67-1.71,1.48-2.88,1.52h-.05s0,0,0,0c-.33,0-.65-.16-.89-.45-.3-.35-.42-.82-.34-1.3.45-3.02,1.78-5.93,3.1-8.64v-.03s.03-.03.03-.03c.26-.63.6-1.55.97-2.52.42-1.11.85-2.26,1.16-3.01l.66-1.57-1.7.19c-1.87.21-3.11.98-3.7,2.3l-.02.04v.04c-1.1,3.05-4.25,10.78-5.71,13.66l-.71,1.5c-.92,1.65-2.63,2.38-3.84,2.71.23-.55.46-1.07.71-1.59l.03-.05.02-.06c.27-.79.69-1.92,1.27-3.46l.35-.91h0s.15-.38.15-.38c.76-1.96,1.61-4.12,2.38-6.06.67-1.69,1.27-3.21,1.68-4.28l.48-1.24-1.33-.11c-1.36-.12-2.08-.43-2.57-1.12l-.05-.07-.06-.06c-.15-.14-.19-.27-.19-.3v-.03c.04-.06.11-.13.16-.18,6.28-1.37,11.42-3.01,16.17-5.17.72-.35,1.4-.52,2.02-.52M217.61,75.47c1.3,0,2.41.32,3.41,1,.76.49,1.44,1.26,2.16,2.07.17.2.35.39.51.57.07.08.15.34.22.55.04.14.08.27.13.4,0,.14.03.26.05.38-.11.25-.23.57-.25.89v.14s.02.14.02.14c.26,1.18-.11,2.36-.49,3.61-.15.5-.32,1.02-.44,1.56-.07.34-.41.78-.73,1.2-.16.21-.32.42-.46.63-.15.19-.29.39-.43.58-.32.43-.62.83-.95,1.2l-.03.03-.02.03c-.2.26-.39.52-.58.79-.53.74-1.03,1.43-1.58,1.84-.91.63-1.48,1.53-1.97,2.32-.28.44-.54.86-.82,1.18-1.01,1.04-2.05,2.12-3.1,3.03-1.55,1.17-3.02,2.19-4.49,3.12-.92.57-1.92,1.09-2.88,1.61-.5.27-1,.53-1.48.8-.2.03-.53.08-.82.33l-.04.04-.04.04c-.67.74-1.53.92-2.52,1.13-.57.12-1.17.25-1.8.5-.74.33-1.67.87-2.23,2.11-.45.92-3.98,6.87-7.71,13.16-6.96,11.72-11.92,20.12-12.46,21.5-.22.57-.53,1.12-.85,1.7-.58,1.04-1.24,2.21-1.43,3.68-.04.21-.34.59-.61.92-.14.17-.29.35-.43.54.1-.24.21-.48.31-.71.32-.73.65-1.48.95-2.29.26-.8.52-1.6.77-2.4.66-2.07,1.35-4.2,2.1-6.27.74-2.02,1.59-4.01,2.42-5.94.24-.56.48-1.12.72-1.68,1.29-3.16,2.62-6.44,4.03-9.74.91-2.24,1.85-4.44,2.74-6.55l.28-.63c.46-1.02.89-1.99,1.37-2.96.37-.75.76-1.49,1.14-2.23.58-1.11,1.17-2.25,1.73-3.46.36-.82.68-1.68.99-2.5.3-.8.6-1.62.94-2.38.81-1.77,1.64-3.49,2.46-5.17.6-1.31,1.16-2.67,1.72-4.13l.15-.38c.31-.79.63-1.6,1.02-2.6l1.3-3.37-2.85,2.22c-.52.4-1.01.8-1.48,1.19-.83.67-1.62,1.31-2.48,1.92l-8.22,6.44c-.37.29-.76.59-1.11.73l-.06.02-.05.03c-.25.15-.51.27-.77.4-.46.22-.93.45-1.38.77-.23.14-.42.2-.58.2s-.36-.07-.61-.23l2.44-2.41,2.8-2.77,2.16-2.13-.56.08c1.44-1.33,3.59-3.16,5.2-4.54.66-.57,1.32-1.13,1.9-1.63,1.58-1.24,3.31-2.34,4.99-3.39.97-.61,1.97-1.24,2.94-1.9l.05-.03.05-.04c.46-.4.92-1.03,1.21-1.66.27-.51.49-1.04.7-1.55.16-.39.32-.77.49-1.13.47.83,1.23,1.49,2.49,1.49.45,0,.95-.09,1.53-.26,1.43-.42,2.97-.71,4.46-1,.9-.17,1.83-.36,2.7-.55.76-.15,1.43-.22,2.05-.22M203.3,90.65c-.34.87-.64,1.76-.93,2.81v.03s-.02.03-.02.03c-.06.26-.07.52-.08.75-.01.18-.03.43-.08.56-.57,1.42-1.12,2.83-1.67,4.24-.55,1.4-1.09,2.8-1.65,4.21l-.32.8.62.36s.05.07.09.11l.49.57.68-.32c.38-.17.76-.34,1.15-.51,1.14-.49,2.32-1,3.47-1.77,1.15-.77,2.25-1.72,3.31-2.64.52-.45,1.04-.9,1.56-1.33.19-.16.39-.31.59-.47.63-.51,1.29-1.04,1.88-1.59,1.55-1.35,2.38-3.18,3.18-4.95l.13-.29c.5-1.14.95-2.29,1.43-3.67.2-.69.31-1.33.42-2.01l.09-.54c.28-1.79.48-3.65.67-5.45v-.09c.05-.54-.29-.98-.49-1.2-.33-.35-.7-.53-1.08-.53h-.14s-.1.03-.1.03c-1.76.38-3.58.77-5.35,1.39-.75.27-1.46.62-2.14.97-.76.38-1.48.75-2.18.96-1.58.41-1.95,1.7-2.22,2.64-.04.13-.07.26-.1.36-.13.37-.1.71-.08.96,0,.07.01.13.01.23,0,.18.02.37.03.56.03.45.06.87,0,1.15-.16.6-.36,1.18-.57,1.79-.21.6-.43,1.23-.6,1.88M299.04,79.77c.33,0,.5.18.97.83.2.28.42.59.71.89.37.37.88.55,1.54.55.18,0,.39-.01.61-.04.46.16.75.37.92.66-.07.17-.12.37-.14.58-.14.44-.25.79-.34,1.09-.3.97-.4,1.3-1.1,2.56-.63.85-2.98,1.8-5.63,2.59,1.93-2.8,2.72-4.66,2.55-5.97l-.21-1.59-1.34.89c-2.17,1.44-4.74,4.72-6.43,7.3l-1.12,1.72h.05c-1.23,2.15-2.61,5.41-2.64,6.64l-.02.67.61.27c.23.11.5.16.82.16,1.63,0,5.01-1.54,9.62-3.86-3.01,2.09-5.72,3.95-6.17,4.25-.98.72-2.24,1.12-3.82,1.24-.08,0-.15,0-.22,0-1.62,0-2.97-.46-4.12-1.41-.12-.13-.27-.33-.42-.55-.08-.12-.17-.24-.26-.36-.67-2.37,1.67-7.05,6.94-13.93l.32-.42c1.09-1.36,4.74-4.25,8.19-4.75.04,0,.08,0,.12,0M127.08,89.42c1.68,0,2.96.9,3.8,1.49.49.35.85.6,1.27.65h.03s.03,0,.03,0h.06s.03,0,.03,0c.24,0,.45-.05.63-.1.02,0,.03,0,.05-.01.1.06.21.11.32.16.08.04.2.1.3.15-.92,4.04-5.3,13.48-9.19,21.82l1.02.57c-.57.9-1.1,1.81-1.61,2.72l-.02.04-.02.04c-.23.52-.44.94-.64,1.27l-.06.09-.03.1c-.17.54-.84,2.46-2.02,4.58-2.05,3.18-4.02,5.8-7.22,5.8-.5,0-1.02-.06-1.57-.19,1.64-1.23,3.97-3.61,5.84-8.03,2.02-4.84,3.83-9,4.3-9.89l.84-1.6-1.81.14c-.36.03-.79.08-1.25.14-.76.09-1.63.2-2.29.2-.34,0-.52-.03-.62-.05-1.54-.37-2.52-.89-3.16-1.65-.08-.11-.16-.21-.23-.32l.14.09.05-.07.03-.04.08-.14.03-.16.1-.47-.3-.37-.3-.37h-.43c0-.07,0-.14,0-.21.05-.4.91-4.77,2.14-6.77.23-.35.42-.69.6-.99.26-.45.48-.83.74-1.13.19-.22.39-.44.58-.67.86-1,1.75-2.04,2.69-2.85,1.55-1.3,3.25-2.48,4.72-3.45.78-.35,1.55-.52,2.29-.52M117.28,103.55c-.27.57-.25,1.16-.24,1.69,0,.26.01.5-.02.69l-.16.94.93.2s.06.02.08.03c.1.03.19.07.32.09l.48.1.38-.32c4.41-3.71,7.11-8.67,9.36-13.48l.39-.82-.78-.46s-.11-.07-.13-.07l-.66-.75-.75.65c-.28.24-.6.47-.95.7-.49.34-1,.68-1.48,1.16-.33.35-.67.7-1.02,1.05-1.11,1.14-2.27,2.31-3.17,3.62-1.1,1.54-1.89,3.3-2.58,4.98M251.45,91.2c.4.04.8.07,1.2.11.83.07,1.6.13,2.34.27h.04s.04.01.04.01c.07.04.22.35.06.75-.59,1.69-1.19,3.53-1.61,5.51l-.86,4.05,2.62-3.2c.24-.3.48-.6.73-.9.6-.75,1.22-1.53,1.9-2.27.88-.95,1.93-2.06,3.09-3.03.27-.22.59-.31,1.05-.31.3,0,.63.04.97.08.29.03.6.07.91.08.48.16,1.59.85,1.76,1.2.54,3.98-.99,7.99-2.89,12.45l-1.36,3.2c-1.48,1.41-2.72,2.2-3.57,2.2-.19,0-.64,0-1.08-.92-.02-.04-.03-.13-.02-.18.41-1.1.82-2.21,1.23-3.33.41-1.13.83-2.25,1.24-3.36.02-.05,1.84-4.88,1.99-5.56l.36-1.65-1.62.49c-1.77.53-4.1,1.48-6.49,4.19-.65.82-1.3,2.7-2.28,5.7-.59,1.79-1.32,4.02-1.7,4.56-.74.97-1.28,1.1-1.62,1.11l-.96-.3c-.62-.19-1.8-.75-2.17-1.56,1.35-3.11,3.28-9.49,4.71-14.21.61-2.01,1.13-3.74,1.41-4.56.19-.58.36-.61.59-.61M111.57,92.32c.37,0,.68.04.85.09.03.06.05.13.07.18.07.18.15.37.26.56.04.15.02.38-.08.6-.11.25-.3.47-.45.53-.3.12-.61.26-.91.4-.73.33-1.43.64-2.04.68-.65,0-1.98-.48-2.58-1.03l.18-.08c1.32-.6,2.58-1.17,3.9-1.7l.09-.03.08-.05c.07-.04.28-.09.39-.12l.06-.02c.05,0,.11,0,.18,0M241.98,92.4c.37,0,.68.04.85.09.03.06.05.13.08.18.07.18.15.37.26.56.04.15.02.38-.08.6-.11.25-.3.47-.45.53-.31.12-.61.26-.92.4-.73.33-1.42.64-2.03.68-.65,0-1.99-.48-2.58-1.03l.15-.07c1.34-.61,2.6-1.18,3.94-1.72l.09-.03.08-.05c.07-.04.28-.09.39-.12l.06-.02c.05,0,.11,0,.18,0M238.61,98.23c.35,0,.71.13,1.01.36l.02.02.02.02c.45.31.91.57,1.4.84.03.02.06.03.09.05-.18.61-.35,1.22-.52,1.83-.47,1.67-.96,3.4-1.5,5.11v.03s-.02.03-.02.03c-.25,1-1.31,4.49-2.49,6.86l-.97,1.95c-.07.03-.14.06-.21.08l-.1.04-.09.06c-.15.09-.33.14-.54.14-.61,0-1.25-.38-1.47-.73-.07-.18-.18-.87-.06-2.36l.13-1.49.06-.06.07-.31c.01-.05.02-.1.02-.1,0,0,0,0,0,0,.69-1.98,3.03-8.88,3.47-10.19l.08-.24c.21-.61.4-1.18.75-1.57.26-.31.6-.37.84-.37M224.22,99.56c.33,0,.5.18.97.83.19.27.41.58.68.86.19.21.36.32.47.39.52.37,1.4,1.2,1.6,2.64v.05s.02.05.02.05c.02.09.05.32.02.86,0,.02,0,.03-.01.04l-.08.13v.26c-.01.07-.23,7.35-.06,8.04l.15.52h0c-1.16,0-1.46-1.89-1.51-2.27l-.34-2.62-1.48,2.18c-1.71,2.52-3.42,4.56-4.46,5.64-.41.36-.78.75-1.14,1.13-.51.54-.99,1.05-1.57,1.44-1.04.77-2.37,1.2-3.86,1.24-.15,0-.31.01-.46.01-1.48,0-2.74-.46-3.84-1.42-.12-.13-.27-.34-.43-.56-.08-.12-.17-.24-.26-.36-.67-2.35,1.69-7.07,7.01-14.02l.25-.33c.94-1.08,4.55-4.15,8.22-4.76.03,0,.06,0,.09,0M213.26,117.93c.33,0,.68-.04,1.09-.13h.04s.04-.02.04-.02c2.87-.91,10.16-11.56,9.88-14.43l-.11-.9h-.91c-.32,0-3.2.06-5.22,2.15-.08.09-8.16,9.07-6.81,12.19.19.43.69,1.15,1.99,1.15M173.79,53.81c-.23,0-.55.45-.77.72-.05.09-2.69,6.87-5.23,14-2.89.6-11.94,3.31-13.43,3.84-.35.09-.8.65-.73.93.23.61.69,1.24,1.18,1.7.4.41,1.19.58,1.84.79.33.1.73.28,1.1.28.08,0,.15,0,.23-.03,2.53-.58,3.44-.52,7.81-1.72l-8.54,24.52c-.18.49-.24.92-.2,1.3-1.76,1.62-3.31,3.03-3.73,3.36-.11-.12,3.03-12.46,3.24-14.22.03-.16.05-.38,0-.59-.24-1.2-1-2.12-1.89-3.01-.73-.7-1.61-1.05-2.47-1.05-.66,0-1.31.2-1.88.61-1.2.83-3.05,2.87-4.32,3.72.66-2.03,7.02-20.33,8.24-24.52.24-.81-.01-1.48-.56-2.16-.35-.5-.76-.92-1.23-1.32-.71-.67-1.33-1.02-1.87-1.02-.59,0-1.08.42-1.48,1.29-.82,2.1-9.94,29.14-13.65,40.15-2.46,2.47-4.71,5.07-6.82,7.83-1.16,1.56-2.23,3.18-3.3,4.79,4.21-9.04,8.55-18.42,9.32-22.34.12-.7-1.05-.92-1.44-1.26-.35.02-.67.17-.89.17-.01,0-.02,0-.03,0-.59-.08-2.37-2.15-5.2-2.15-.83,0-1.76.18-2.77.65-1.65,1.1-3.35,2.28-4.88,3.57-1.21,1.06-2.29,2.38-3.38,3.62-.52.58-.85,1.33-1.43,2.23-1.41,2.3-2.29,6.99-2.3,7.21-.07.73.13,1.35.47,1.95-.03.04-.05.07-.08.11-.28.37-.55.74-.83,1.11-.76.79-1.44,1.64-2.13,2.41-.81.88-1.7,1.78-2.63,2.47,1.27-2.56,2.34-6.18,2.56-7.06.82-2.59,1.5-5.15,2.24-7.72-.79-.46-1.47-.81-2.11-1.24-.49-.37-1.06-.57-1.62-.57-.61,0-1.2.24-1.61.73-.52.58-.76,1.39-1.01,2.12-.22.67-.88,2.61-1.57,4.66-.18,0-.36.03-.53.13-.76.5-1.58,1.08-2.33,1.64-3.04,2.64-6.07,5.29-9.09,8-.97.85-1.84,1.81-2.81,2.66-1.35,1.09-2.92,1.95-4.24,3.18-1.98,1.85-3.9,3.91-5.86,5.83-.09-.05-.18-.1-.19-.17.02-.23.08-.54.17-.79.89-1.72,1.72-3.42,2.61-5.14.96-1.74,2.03-3.35,2.98-5.16.81-1.47,1.44-3.05,2.16-4.58.69-1.37,1.31-2.72,1.91-4.14,1.51-3.37,2.95-6.71,4.46-10.08.57-1.26,1.31-2.42,1.89-3.61.26-.44.34-.98.51-1.47,1.29-2.49,2.6-4.91,3.8-7.45.98-2.26,2.46-4.28,2.83-6.9.2-1.24.89-2.31,1.32-3.54-.04-.44-.09-.94-.13-1.38-.44-.85-.77-1.81-1.28-2.64-.18-.4-.74-.55-1.11-.83-.17-.1-.37-.28-.54-.38-.07.02-.21.05-.35.09-.72,1.23-1.45,2.46-2.15,3.75-1.22,2.17-2.36,4.4-3.58,6.58-.67,1.44-1.34,2.87-2.08,4.33-.67,1.44-1.5,2.84-2.24,4.3-.86,1.86-1.63,3.77-2.58,5.57-.72,1.52-1.71,2.89-2.41,4.49-1.22,2.47-2.27,5.05-3.4,7.57-1.05,2.28-2.09,4.56-3.23,6.78-.91,1.95-1.84,3.82-2.78,5.63-.48,1.02-1.21,1.95-1.6,3.02-.97,2.85-2.51,5.26-3.78,7.82-1.07,2.21-2.27,4.16-3.66,6-.17.19-.31.53-.27.67.41,1.01-.29,1.49-.72,2.12.02.07.04.14.05.21.14-.04.28-.07.42-.11-.15.86.33,1.25.64,1.92.53,1.2,1.32,1.67,2.22,2.25.37.28.84.38,1.26.57.35-.09.7-.18,1.05-.27,1-1,2.01-2.01,3.08-3.03.71-.7,1.4-1.48,2.18-2.2.9-.83,1.86-1.45,2.74-2.34.87-.97,1.54-2.11,2.58-2.97,1.35-1.09,2.51-2.36,3.85-3.52,1.56-1.44,3.17-2.68,4.74-4.12,1.14-1.04,2.18-2.2,3.24-3.29.59-.6,6.67-6.41,7.47-7.06.2-.15.39-.33.57-.53-.12,1.22-.16,2.65.13,3.25.39.7,1.4,1.27,2.36,1.27.38,0,.76-.09,1.09-.3,1.29-.48,2.4-1.37,3.37-2.21.68-.55,1.16-1.27,1.71-2.01.47-.66,1.73-3.05,2.38-4.29.14.24.31.48.49.72.97,1.16,2.37,1.69,3.72,2.01.23.06.53.08.85.08,1.12,0,2.66-.27,3.61-.34-.5.95-2.32,5.14-4.34,9.97-3.05,7.18-7.28,8.65-7.28,8.65,1.48.66,2.78.95,3.93.95,3.76,0,6-3.08,8.07-6.29,1.12-2,1.82-3.89,2.11-4.79.26-.44.5-.95.69-1.37,2.08-3.74,4.54-7.2,7.27-10.43.84-1.02,1.72-2.02,2.61-3.01-.44,1.31-.7,2.07-.7,2.07,0,0-.05.39-.03,1.05.12.18,1.3.78,1.58.78.01,0,.02,0,.03,0,4.56-.21,5.03-2.12,5.17-2.45.94-2.4,3.02-11.64,10.1-14.44.11.12.26.16.35.21-.79,2.14-1.52,4.19-2.33,6.25-.79,1.84-1.75,3.58-1.65,5.71.01,1.78.39,2.36,2.07,3.11.88.4,1.71.58,2.49.58,1.08,0,2.07-.36,2.98-1.03.26-.21,1.68-2.03,3.29-4.17.04.03.07.06.11.09.46.33.84.68,1.38.76.03,0,.07,0,.1,0,.84,0,2.76-1.06,2.92-1.53l.47-.79c.97-1.14,11.82-15.85,12.26-17.3-1.17,1.19-10.77,11.89-10.91,11.89,0,0,0,0,0,0,.31-1.12,3.44-9.44,4.36-11.91.62-1.65,2.27-6.17,3.71-10.4,10.02-2.96,10.47-2.93,12.37-3.65.4-.18.67-.84.76-1.39.03-.45-.39-1.24-.67-1.46-1.12-.6-2.4-.94-3.63-1.37-.07-.03-.15-.04-.24-.04-.21,0-.44.06-.64.11l-1.43.52-4.55,1.4c.39-1.37.75-2.28.75-2.28.36-1.21,2.24-6.3,2.62-7.15.83-1.4.52-2.59-.9-2.89-.96-.27-1.96-.38-3.01-.41,0,0,0,0-.01,0h0ZM118.4,106.21c-.16-.03-.25-.09-.4-.12.12-.7-.1-1.54.19-2.13.68-1.66,1.44-3.35,2.48-4.8,1.14-1.63,2.7-3.08,4.1-4.56.71-.7,1.63-1.17,2.36-1.8.11.12.28.22.37.28-2.3,4.91-4.88,9.59-9.1,13.14h0ZM113.22,107.08s.04-.06.04-.06c0,0,0,0,0,0-.01.02-.03.04-.04.06h0ZM285.03,58.85c-.23,0-.55.45-.77.72-.05.09-2.69,6.87-5.23,14-2.89.6-11.94,3.31-13.43,3.84-.35.09-.8.65-.73.93.23.61.69,1.23,1.18,1.7.41.42,1.19.58,1.84.79.33.1.74.28,1.1.28.08,0,.15,0,.23-.03,2.53-.58,3.44-.52,7.81-1.72l-6.78,19.48c-1.72,2.32-4.66,6.14-6.54,7.54,1.85-4.35,3.56-8.66,2.95-13.03-.17-.92-2.22-1.96-2.6-2.01-.68-.02-1.36-.17-2.02-.17-.59,0-1.15.11-1.68.53-1.16.97-2.22,2.06-3.21,3.13-.99,1.07-1.82,2.18-2.66,3.22.4-1.89.98-3.68,1.58-5.39.36-.91-.07-1.99-.91-2.07-1.17-.22-2.45-.26-3.67-.39-.01,0-.02,0-.03,0-.8,0-1.28.42-1.57,1.31-.94,2.7-4.33,14.88-6.24,19.02.37,1.72,2.66,2.48,2.94,2.57-.04.02-.06.04.05.08.42.18.81.27,1.18.27.94,0,1.72-.57,2.44-1.5,1.04-1.46,2.85-8.84,3.97-10.25,2.13-2.41,4.2-3.32,6-3.85-.1.47-1.42,4.01-1.95,5.41-.84,2.23-1.66,4.52-2.5,6.74-.08.25-.05.68.09.94.49,1.02,1.16,1.46,1.97,1.46,3.42,0,9.12-7.92,12.01-12.44l-1.37,3.94c-.48,1.31-.1,2.18.81,2.84.46.33.84.67,1.39.76.03,0,.07,0,.1,0,.84,0,2.76-1.06,2.93-1.53l.46-.79c.97-1.14,11.82-15.85,12.26-17.3-1.17,1.19-10.77,11.89-10.91,11.89,0,0,0,0,0,0,.3-1.12,3.43-9.44,4.36-11.91.62-1.65,2.27-6.17,3.71-10.4,10.02-2.96,10.47-2.93,12.37-3.64.4-.18.67-.84.76-1.39.03-.45-.39-1.24-.67-1.46-1.12-.6-2.4-.94-3.63-1.37-.07-.02-.15-.03-.24-.03-.21,0-.44.06-.64.11l-1.43.52-4.55,1.4c.39-1.36.75-2.28.75-2.28.36-1.21,2.24-6.3,2.61-7.15.83-1.4.52-2.59-.9-2.89-.96-.27-1.96-.39-3.01-.41,0,0,0,0-.01,0h0ZM325.03,71.36c-.79,0-1.61.21-2.46.62-5.33,2.42-10.66,3.95-16.08,5.12-.28.07-.8.65-.8.95-.1.47.16.92.46,1.22.81,1.13,2,1.42,3.3,1.53-.88,2.28-2.63,6.66-4.05,10.34-4.65,2.17-14.01,7.44-16.55,7.44-.17,0-.3-.02-.41-.07.03-1.05,1.5-4.55,2.81-6.68l.07-.02s10.06-1.93,11.74-4.37c1.01-1.82.91-1.95,1.57-3.98.02-.23.08-.54.27-.66-.29-1.12-1.15-1.56-1.95-1.8-.26.04-.49.06-.7.06-.36,0-.65-.07-.84-.26-.77-.79-1.11-2.02-2.38-2.02-.07,0-.14,0-.22.01-3.87.55-7.74,3.71-8.87,5.12-1.83,2.41-8.85,11.21-7.39,15.45.33.43.6.89.9,1.18,1.36,1.14,2.97,1.67,4.79,1.67.08,0,.17,0,.25,0,1.61-.12,3.14-.51,4.39-1.43.79-.53,7.89-5.41,12-8.34-.53,1.39-.98,2.61-1.28,3.49-.53,1.1-.98,2.26-1.49,3.44.12-.11.26-.14.33-.16,0,0,4.26-.21,6.08-3.51.24-.51.48-1.02.72-1.53,1.48-2.91,4.66-10.73,5.74-13.75.57-1.26,1.89-1.6,2.9-1.72-.6,1.42-1.59,4.2-2.14,5.54-1.41,2.89-2.73,5.84-3.19,8.93-.26,1.52.86,2.9,2.22,2.9.03,0,.06,0,.09,0,1.33-.05,2.54-.81,3.55-1.81,1.68-1.85,13.3-14.74,13.3-14.74-.68.55-1.27.55-1.27.55-2.98,2.89-9.67,8.31-10.25,8.31-.01,0-.02,0-.03,0-.19-.17.01-.52.17-.79,1-2.19,3.11-6.98,4.07-9.31.6-1.72,1.34-3.17,2.78-4.51.29-.3.53-.81.79-1.25-.92-.78-1.91-1.16-2.96-1.16h0ZM292,90.66c1.86-2.86,4.3-5.8,6.14-7.02.15,1.15-.83,3.11-2.85,5.94-1.27.55-2.42,1-3.29,1.07h0ZM204.7,73.96c-.47.49-.9.83-1.07,1.32-.5.95-.82,2-1.32,2.94-.24.51-.62,1.05-.98,1.37-2.66,1.8-5.46,3.34-7.99,5.34-4.12,3.55-9.86,8.3-8.85,8.3.02,0,.04,0,.06,0-1.84,1.81-3.67,3.63-5.51,5.44-.23.28-.38.54-.54.81.25.08.49.17.67.27.49.36.95.59,1.45.59.35,0,.72-.11,1.13-.37.62-.46,1.37-.73,2.09-1.13.47-.2.9-.53,1.34-.87l8.23-6.44c1.32-.94,2.53-1.99,3.96-3.11-.45,1.16-.81,2.07-1.16,2.98-.53,1.4-1.08,2.73-1.7,4.08-.83,1.7-1.65,3.4-2.46,5.17-.7,1.6-1.23,3.29-1.93,4.89-.91,1.95-1.93,3.77-2.85,5.65-.58,1.19-1.1,2.37-1.67,3.63-.93,2.17-1.85,4.35-2.76,6.59-1.39,3.26-2.71,6.5-4.03,9.74-1.06,2.51-2.2,5.03-3.15,7.66-1.04,2.87-1.93,5.78-2.88,8.7-.39,1.07-.87,2.09-1.34,3.17-.24.51.06,1.4.54,1.5.21.01.42.03.69.03.02,0,.04,0,.06,0q.07-.02.14-.04c.1-.18.19-.42.29-.6.48-.72,1.21-1.35,1.33-2.05.28-2.08,1.56-3.45,2.23-5.19.94-2.4,19.02-32.29,20.14-34.58.38-.84.93-1.28,1.73-1.64,1.55-.62,3.32-.41,4.65-1.87.12-.11.35-.09.49-.13,1.49-.83,3.08-1.61,4.56-2.52,1.6-1.01,3.11-2.07,4.6-3.2,1.09-.95,2.15-2.04,3.21-3.13.92-1.06,1.43-2.53,2.63-3.36.94-.69,1.61-1.83,2.39-2.85.52-.58.95-1.21,1.45-1.86.48-.72,1.19-1.42,1.36-2.21.42-1.82,1.37-3.63.93-5.6.02-.23.15-.56.31-.82-.05-.21-.11-.42-.11-.72-.2-.47-.27-1.05-.59-1.41-.93-1.02-1.82-2.13-2.89-2.82-1.24-.85-2.57-1.16-3.95-1.16-.73,0-1.48.09-2.24.23-2.39.54-4.9.89-7.25,1.58-.47.14-.88.22-1.25.22-1.09,0-1.75-.69-2.17-2.53h0ZM200.01,103.88c-.11-.12-.12-.19-.21-.24,1.13-2.82,2.19-5.62,3.32-8.44.19-.42.11-1,.21-1.47.27-.96.56-1.86.92-2.77.34-1.28.85-2.45,1.19-3.73.13-.63.02-1.35,0-2.01,0-.3-.07-.58.01-.82.32-1.05.44-2.05,1.62-2.35,1.52-.47,2.9-1.42,4.4-1.96,1.71-.59,3.47-.97,5.23-1.35.01,0,.02,0,.03,0,.22,0,.6.45.58.66-.2,1.84-.39,3.67-.67,5.45-.15.86-.25,1.63-.49,2.43-.43,1.23-.87,2.38-1.39,3.56-.81,1.77-1.59,3.61-3.05,4.88-.78.72-1.65,1.39-2.45,2.05-1.6,1.31-3.14,2.82-4.79,3.92-1.46.97-3.03,1.53-4.49,2.2h0ZM111.57,91.32c-.29,0-.5.02-.49.05-.21.05-.49.13-.68.25-1.55.62-3.01,1.3-4.54,1.99-.19.12-.41.7-.29.89.58,1.1,2.72,1.86,3.7,1.86.02,0,.03,0,.05,0,1.1-.06,2.2-.71,3.28-1.14.87-.37,1.44-1.63,1.06-2.51-.25-.38-.34-1.03-.67-1.16-.36-.17-.98-.23-1.41-.23h0ZM241.98,91.4c-.29,0-.5.02-.49.05-.21.05-.49.13-.68.25-1.55.62-3.01,1.3-4.54,1.99-.19.12-.41.7-.29.89.58,1.1,2.72,1.86,3.71,1.86.02,0,.03,0,.05,0,1.1-.06,2.19-.72,3.27-1.14.87-.37,1.44-1.64,1.06-2.51-.25-.38-.34-1.03-.67-1.16-.36-.17-.98-.23-1.41-.23h0ZM238.61,97.23c-.61,0-1.2.24-1.61.73-.52.58-.76,1.39-1.01,2.12-.46,1.38-2.78,8.23-3.46,10.19-.02.06-.03.13-.05.2-1.72,1.55-3.39,3.01-3.63,3.01-.01,0-.02,0-.03-.02-.09-.35,0-5.2.08-7.75.05-.09.03-.16.08-.25.03-.45.04-.98-.04-1.33-.28-1.94-1.51-2.96-2.05-3.34-.09-.05-.18-.1-.28-.23-.77-.79-1.12-2.02-2.38-2.02-.07,0-.14,0-.22.01-3.85.62-7.72,3.78-8.87,5.12-1.83,2.41-8.83,11.28-7.39,15.45.33.43.6.89.9,1.18,1.31,1.15,2.83,1.69,4.52,1.69.17,0,.35,0,.52-.02,1.62-.05,3.14-.51,4.39-1.43,1.08-.72,1.84-1.81,2.81-2.66,1.06-1.09,2.82-3.18,4.6-5.8.15,1.15.74,3.14,2.5,3.14h.02s.01,0,.02,0c1,0,2.61-1.26,4.17-2.76-.1,1.14-.1,2.36.16,2.9.39.7,1.4,1.27,2.36,1.27.38,0,.76-.09,1.09-.3,1.29-.48,2.4-1.36,3.37-2.21.68-.55,1.16-1.27,1.71-2,.6-.84,2.47-4.5,2.75-4.98-.15.23-.31.42-.51.68-.28.37-.55.74-.83,1.11-.76.79-1.44,1.64-2.13,2.41-.81.88-1.7,1.78-2.64,2.47,1.27-2.56,2.34-6.18,2.56-7.06.82-2.59,1.5-5.15,2.24-7.72-.79-.46-1.47-.81-2.11-1.24-.49-.37-1.06-.57-1.62-.57h0ZM213.26,116.93c-4.12,0,3.9-9.9,5.55-11.66,1.73-1.79,4.25-1.84,4.49-1.84.01,0,.02,0,.02,0,.23,2.32-6.64,12.58-9.18,13.38-.34.07-.63.11-.87.11h0ZM243.67,107.1s-.02.02-.04.06c.01-.02.03-.04.04-.06,0,0,0,0,0,0h0Z"/>
    </g>
  </g>
</svg>